{"glyphs":{"0":{"ha":779,"x_min":51,"x_max":792,"o":"m 61 492 q 119 694 78 607 q 218 841 160 782 q 347 925 276 899 q 495 945 418 951 q 712 833 632 932 q 792 560 792 733 q 789 496 792 530 q 781 428 785 461 q 722 240 763 324 q 624 99 682 156 q 496 14 567 42 q 348 -10 425 -14 q 230 30 284 -2 q 136 110 176 61 q 73 227 96 160 q 51 375 51 294 q 61 492 51 431 m 257 476 q 248 406 251 439 q 246 345 246 374 q 276 172 246 239 q 367 101 307 105 q 441 121 407 97 q 503 192 476 145 q 551 303 530 238 q 584 445 572 369 q 594 522 591 484 q 597 591 597 560 q 568 760 597 698 q 477 827 540 822 q 339 739 396 833 q 257 476 283 645 z "},"1":{"ha":471,"x_min":96,"x_max":447,"o":"m 144 793 l 385 932 l 447 926 q 445 888 444 923 q 434 782 445 854 q 386 465 410 627 q 338 147 361 302 q 335 123 335 134 q 335 102 335 112 q 347 30 335 56 q 362 0 359 3 l 105 0 l 96 11 q 124 47 99 13 q 160 150 148 81 l 239 674 q 245 710 243 696 q 247 733 247 725 q 239 746 247 746 q 208 738 230 746 l 133 718 l 144 793 z "},"2":{"ha":669,"x_min":-2,"x_max":694,"o":"m 686 685 q 666 623 682 655 q 615 547 650 592 q 523 436 581 501 q 374 270 465 370 l 235 117 l 442 117 q 548 133 503 117 q 618 182 592 150 l 624 179 l 583 0 l -2 0 l 13 94 q 121 216 65 156 q 227 330 177 276 q 329 441 281 388 q 413 540 377 493 q 472 628 449 587 q 500 704 495 669 q 498 748 503 725 q 479 790 493 771 q 441 823 465 809 q 383 838 417 837 q 271 816 321 841 q 198 754 220 790 l 156 758 l 182 902 q 283 936 219 921 q 431 945 346 951 q 544 919 493 940 q 630 863 595 897 q 679 783 664 829 q 686 685 694 738 z "},"3":{"ha":669,"x_min":37,"x_max":677,"o":"m 613 268 q 565 156 600 208 q 480 69 530 105 q 369 14 429 34 q 246 -6 308 -6 q 169 -1 201 -6 q 113 13 137 5 q 71 32 89 21 q 37 54 53 43 l 61 201 l 70 201 q 128 133 81 161 q 233 104 174 104 q 299 117 268 104 q 355 154 330 131 q 397 206 380 177 q 421 265 413 235 q 426 326 428 295 q 410 379 425 356 q 366 417 396 402 q 286 433 335 431 l 192 433 l 208 540 l 275 540 q 360 556 324 541 q 421 594 396 570 q 461 648 445 618 q 485 710 477 678 q 485 753 489 731 q 467 793 481 774 q 431 823 453 811 q 375 835 409 835 q 312 828 345 835 q 251 807 279 821 q 199 776 222 793 q 164 739 176 758 l 155 744 l 180 886 q 281 927 220 908 q 428 945 342 945 q 610 890 543 945 q 677 749 677 835 q 676 724 677 736 q 674 701 675 712 q 657 647 667 675 q 627 592 647 619 q 578 538 608 565 q 500 485 548 511 q 564 443 540 469 q 602 386 589 417 q 616 325 615 356 q 613 268 618 294 z "},"4":{"ha":739,"x_min":37,"x_max":742,"o":"m 704 257 l 580 257 l 564 147 q 559 101 559 120 q 572 29 559 54 q 589 0 586 3 l 318 0 q 326 11 318 0 q 346 42 335 22 q 369 88 358 61 q 386 150 380 115 l 402 257 l 37 257 l 49 348 l 527 932 l 666 932 l 678 921 q 659 782 683 923 l 597 375 q 633 380 613 377 q 673 389 653 383 q 710 402 693 394 q 738 421 728 410 l 742 417 l 704 257 m 418 375 q 431 460 423 413 q 448 554 439 506 q 465 648 457 602 q 479 733 473 694 q 407 639 445 690 q 332 538 369 587 q 265 445 295 489 q 216 377 235 402 q 315 376 268 377 q 418 375 362 375 z "},"5":{"ha":666,"x_min":37,"x_max":685,"o":"m 295 581 l 366 581 q 502 560 449 581 q 587 506 556 540 q 631 431 618 473 q 643 350 643 390 q 642 316 643 332 q 637 284 640 300 q 589 170 624 223 q 504 77 554 117 q 392 16 453 38 q 268 -6 330 -6 q 125 13 179 -6 q 37 54 70 32 l 62 201 l 73 201 q 97 163 78 180 q 140 132 115 145 q 196 111 166 118 q 257 104 227 104 q 322 121 291 104 q 378 163 353 137 q 420 220 402 188 q 445 281 437 251 q 449 306 449 292 q 450 329 450 319 q 444 378 450 354 q 421 421 437 402 q 379 451 405 439 q 313 465 353 463 l 109 465 l 217 932 l 685 932 l 669 765 l 661 761 q 607 803 648 790 q 509 816 565 816 l 350 816 l 295 581 z "},"6":{"ha":688,"x_min":46,"x_max":704,"o":"m 503 832 q 431 814 466 832 q 366 765 396 797 q 313 690 337 734 q 276 591 289 645 q 350 615 310 607 q 437 619 391 623 q 553 589 506 615 q 629 527 600 564 q 670 445 658 490 q 683 353 683 399 q 683 325 683 340 q 680 297 683 310 q 633 180 669 235 q 547 83 597 125 q 436 17 496 42 q 316 -10 375 -8 q 119 95 192 3 q 46 334 46 187 q 56 450 46 390 q 117 653 73 562 q 222 809 161 744 q 356 909 283 873 q 506 945 429 945 q 704 907 613 945 l 680 734 q 646 775 667 757 q 599 806 624 793 q 548 825 573 819 q 503 832 522 832 m 388 503 q 318 491 358 504 q 249 444 279 477 l 255 447 q 246 369 249 405 q 243 300 243 332 q 330 101 243 109 q 386 116 359 99 q 432 160 412 133 q 466 224 452 188 q 487 299 481 260 q 492 358 492 332 q 468 461 492 423 q 388 503 444 500 z "},"7":{"ha":629,"x_min":75,"x_max":722,"o":"m 712 884 q 643 768 683 838 q 559 615 603 698 q 470 445 514 533 q 388 275 426 358 q 321 120 350 192 q 281 0 292 48 l 75 0 q 121 117 88 49 q 197 263 153 185 q 292 421 241 340 q 394 576 343 501 q 488 713 444 650 q 562 816 532 776 l 243 816 q 152 800 182 816 q 99 752 123 784 l 96 755 l 137 932 l 722 932 l 712 884 z "},"8":{"ha":694,"x_min":29,"x_max":702,"o":"m 37 295 q 57 358 40 326 q 100 419 73 391 q 160 469 126 447 q 233 503 195 492 q 149 607 174 554 q 133 731 125 659 q 165 825 137 784 q 236 892 193 865 q 334 932 279 918 q 450 945 390 945 q 554 924 506 945 q 635 864 602 902 q 686 776 669 827 q 696 666 702 725 q 685 607 693 634 q 660 557 677 581 q 615 512 643 533 q 543 468 586 490 q 604 407 580 439 q 643 342 629 375 q 662 279 658 310 q 663 223 666 247 q 619 121 651 164 q 540 49 586 78 q 440 7 495 21 q 330 -6 385 -6 q 213 14 270 -6 q 115 73 156 34 q 51 168 73 112 q 37 295 29 223 m 474 236 q 469 293 479 267 q 438 342 458 319 q 391 384 418 366 q 334 420 364 402 q 259 365 284 404 q 225 270 233 326 q 225 212 220 241 q 243 160 230 184 q 278 121 257 136 q 327 105 299 105 q 426 143 388 105 q 474 236 465 180 m 517 688 q 517 734 520 709 q 504 781 514 758 q 477 818 495 803 q 434 833 460 833 q 351 799 378 833 q 318 723 324 765 q 338 633 308 669 q 420 556 367 597 q 487 601 466 573 q 517 688 508 629 z "},"9":{"ha":693,"x_min":51,"x_max":709,"o":"m 268 104 q 330 121 299 104 q 390 170 361 139 q 441 246 418 201 q 477 345 465 291 q 404 321 444 329 q 318 316 364 313 q 201 345 249 321 q 124 405 153 369 q 81 488 94 442 q 69 580 69 533 q 69 609 69 594 q 73 637 70 624 q 120 760 85 702 q 205 860 155 817 q 316 927 255 904 q 439 945 377 950 q 639 841 570 934 q 709 600 709 749 q 706 544 709 573 q 699 484 704 514 q 638 283 682 374 q 533 127 594 192 q 400 26 473 62 q 251 -10 327 -10 q 51 29 144 -10 l 78 204 q 167 131 117 158 q 268 104 217 104 m 367 429 q 437 441 398 428 q 508 490 476 455 l 501 487 q 511 566 508 530 q 514 632 514 602 q 423 833 514 825 q 368 819 394 835 q 321 775 342 803 q 286 710 300 747 q 267 635 271 674 q 262 580 262 607 q 287 473 262 512 q 367 429 311 434 z "},"\u0000":{"ha":3,"x_min":0,"x_max":0,"o":""}," ":{"ha":249,"x_min":0,"x_max":0,"o":""},"!":{"ha":335,"x_min":24,"x_max":380,"o":"m 176 939 l 380 939 l 353 793 l 230 249 l 118 249 l 156 795 l 176 939 m 32 97 q 77 164 38 142 q 164 180 115 187 q 240 142 211 172 q 263 70 270 112 q 218 5 255 26 q 131 -10 180 -16 q 53 27 83 -2 q 32 97 24 56 z "},"\"":{"ha":482,"x_min":101,"x_max":512,"o":"m 137 964 l 303 964 l 283 822 l 233 616 l 101 616 l 118 824 l 137 964 m 348 964 l 512 964 l 493 822 l 444 616 l 311 616 l 329 824 l 348 964 z "},"#":{"ha":852,"x_min":48,"x_max":867,"o":"m 366 0 l 441 214 l 308 214 l 236 0 l 93 0 l 164 214 l 48 214 l 65 330 l 201 330 l 295 610 l 155 610 l 169 725 l 332 725 q 368 833 350 777 q 404 939 386 888 l 549 939 l 474 725 l 607 725 q 643 833 624 777 q 678 939 661 888 l 824 939 l 749 725 l 867 725 l 852 610 l 714 610 l 621 330 l 763 330 l 746 214 l 584 214 l 511 0 l 366 0 m 476 330 l 570 610 l 441 610 l 346 330 l 476 330 z "},"$":{"ha":648,"x_min":16,"x_max":675,"o":"m 431 211 q 430 271 437 244 q 407 320 423 299 q 368 360 391 342 q 318 398 345 378 l 319 398 q 237 461 278 426 q 166 538 196 496 q 121 630 136 580 q 113 738 105 680 q 149 829 121 790 q 220 893 177 867 q 319 932 263 920 q 439 945 375 945 q 584 927 527 945 q 675 886 642 908 l 653 739 l 611 739 q 557 806 599 777 q 457 835 516 835 q 350 807 388 835 q 303 738 311 779 q 309 684 299 709 q 338 636 319 659 q 381 591 356 613 q 433 549 405 570 q 508 485 473 517 q 569 417 543 452 q 611 342 595 382 q 626 257 626 302 q 625 234 626 244 q 623 211 624 223 q 582 111 613 153 q 504 40 551 69 q 395 -3 457 11 q 263 -18 334 -18 q 112 1 171 -18 q 16 42 53 19 l 29 206 l 72 208 q 99 164 80 185 q 143 128 118 144 q 196 102 168 112 q 252 93 223 93 q 378 128 332 93 q 431 209 425 163 l 431 211 m 412 1042 l 496 1042 l 318 -134 l 233 -134 l 412 1042 z "},"%":{"ha":905,"x_min":27,"x_max":934,"o":"m 172 0 l 27 0 q 41 17 32 6 q 75 57 49 27 q 148 147 101 88 q 278 307 195 206 q 485 561 361 409 q 785 932 608 714 l 934 932 l 172 0 m 485 228 q 516 333 493 287 q 570 409 538 378 q 639 457 602 441 q 717 474 677 474 q 833 425 787 474 q 878 284 878 375 q 877 254 878 268 q 875 225 876 239 q 844 126 867 169 q 789 53 821 83 q 720 6 758 22 q 643 -10 682 -10 q 527 38 573 -10 q 481 171 481 85 q 485 228 481 196 m 632 225 q 627 164 627 192 q 635 97 627 121 q 655 73 642 73 q 695 116 677 73 q 726 228 714 158 l 726 227 q 731 294 731 262 q 725 364 731 338 q 706 390 718 390 q 664 346 683 390 q 632 225 645 302 m 89 698 q 121 802 99 757 q 175 879 144 848 q 243 926 206 910 q 319 942 281 942 q 437 894 391 942 q 482 757 482 846 q 477 694 482 725 q 448 596 469 640 q 395 522 426 552 q 326 476 364 492 q 249 460 287 460 q 133 508 180 460 q 85 642 85 556 q 89 698 85 669 m 236 694 q 231 635 231 661 q 239 568 231 592 q 260 543 246 543 q 299 587 279 543 q 329 698 318 632 q 334 732 332 715 q 335 763 335 749 q 329 833 335 808 q 310 859 322 859 q 268 814 287 859 q 236 694 249 769 z "},"&":{"ha":993,"x_min":29,"x_max":963,"o":"m 701 707 q 676 635 694 666 q 630 583 658 605 q 568 543 602 560 q 498 509 535 525 q 576 407 541 452 q 653 305 610 362 q 690 389 675 348 q 704 474 704 429 q 682 533 704 512 l 926 533 q 877 485 899 512 q 848 413 856 457 q 813 314 838 374 q 741 188 787 254 q 803 128 768 147 q 870 109 838 109 q 904 119 883 109 q 963 156 926 129 q 944 101 958 129 q 908 48 931 72 q 854 8 886 24 q 781 -8 822 -8 q 682 13 725 -8 q 607 70 640 34 q 494 16 559 38 q 353 -6 429 -6 q 327 -6 338 -6 q 303 -3 316 -5 q 191 29 243 5 q 102 90 139 53 q 47 177 65 128 q 35 286 29 227 q 66 370 43 334 q 121 434 89 405 q 188 485 152 463 q 259 525 223 508 l 263 525 q 206 635 227 572 q 193 758 185 698 q 226 837 201 801 q 287 898 251 873 q 371 934 324 923 q 471 940 418 945 q 581 910 535 932 q 656 856 627 888 q 696 786 685 825 q 701 707 707 747 m 335 101 q 388 101 361 97 q 441 115 415 105 q 490 138 466 125 q 535 168 514 152 l 327 442 q 255 383 286 417 q 212 284 223 350 q 235 160 203 211 q 335 101 268 110 m 536 730 q 520 801 543 769 q 466 837 496 832 q 402 817 425 841 q 375 755 380 793 q 384 674 370 717 q 429 600 398 631 q 500 652 471 626 q 536 728 530 678 l 536 730 z "},"'":{"ha":263,"x_min":101,"x_max":303,"o":"m 137 964 l 303 964 l 283 822 l 233 616 l 101 616 l 118 824 l 137 964 z "},"(":{"ha":437,"x_min":72,"x_max":543,"o":"m 223 -235 q 109 6 145 -112 q 72 239 72 125 q 74 304 72 271 q 81 366 77 337 q 183 659 102 509 q 405 963 263 809 l 543 963 q 445 832 492 905 q 362 678 399 758 q 298 517 324 599 q 260 362 271 436 q 251 233 251 300 q 258 107 251 171 q 279 -18 265 43 q 314 -133 294 -78 q 362 -235 335 -188 l 223 -235 z "},")":{"ha":437,"x_min":-51,"x_max":421,"o":"m -51 -235 q 45 -104 -2 -177 q 129 49 91 -30 q 193 210 166 129 q 231 366 220 291 q 238 427 236 396 q 239 489 239 458 q 232 617 239 552 q 211 743 225 682 q 176 860 196 805 q 129 963 155 916 l 268 963 q 384 718 346 838 q 421 484 421 599 q 419 421 421 452 q 412 362 417 390 q 310 69 390 219 q 85 -235 230 -81 l -51 -235 z "},"*":{"ha":495,"x_min":62,"x_max":535,"o":"m 283 623 l 198 500 l 83 586 l 201 699 l 62 728 l 128 865 l 243 797 q 244 873 243 835 q 246 948 246 912 l 418 948 l 377 800 l 512 868 l 535 726 l 386 701 q 430 643 409 672 q 474 586 452 613 l 330 498 l 283 623 z "},"+":{"ha":725,"x_min":85,"x_max":720,"o":"m 524 726 l 485 482 l 720 482 l 702 366 l 468 366 l 431 120 l 283 120 l 319 366 l 85 366 l 102 482 l 338 482 q 357 603 348 541 q 375 726 366 666 l 524 726 z "},",":{"ha":340,"x_min":34,"x_max":303,"o":"m 295 42 q 226 -92 286 -42 q 53 -169 166 -142 l 34 -160 q 90 -106 73 -131 q 109 -60 107 -81 q 105 -18 112 -38 q 88 23 97 3 q 70 64 78 43 q 65 107 62 85 q 111 192 72 160 q 200 214 150 223 q 275 156 247 204 q 295 42 303 107 z "},"-":{"ha":564,"x_min":78,"x_max":535,"o":"m 96 402 l 535 402 l 516 287 l 78 287 l 96 402 z "},".":{"ha":340,"x_min":53,"x_max":305,"o":"m 61 117 q 105 198 65 171 q 195 217 145 225 q 275 172 244 209 q 300 86 305 136 q 253 9 292 34 q 164 -8 214 -16 q 84 35 115 0 q 61 118 53 70 l 61 117 z "},"/":{"ha":489,"x_min":-56,"x_max":608,"o":"m -56 -236 l 460 963 l 608 963 l 91 -236 l -56 -236 z "},":":{"ha":340,"x_min":35,"x_max":353,"o":"m 40 85 q 85 154 46 128 q 174 180 123 180 q 254 153 223 180 q 278 81 284 126 q 233 15 270 40 q 147 -10 196 -10 q 65 17 96 -10 q 40 85 35 43 m 112 554 q 156 623 118 597 q 243 648 193 648 q 323 622 294 648 q 348 552 353 595 q 304 485 342 509 q 216 460 267 460 q 136 485 166 460 q 112 554 105 511 z "},";":{"ha":340,"x_min":18,"x_max":359,"o":"m 118 554 q 162 623 125 597 q 249 648 200 648 q 328 621 297 648 q 353 552 359 594 q 308 485 346 511 q 222 460 270 460 q 142 485 172 460 q 118 554 112 511 m 279 57 q 208 -78 267 -14 q 35 -169 148 -142 l 18 -160 q 76 -100 48 -136 q 109 -37 104 -64 q 109 -15 112 -26 q 102 -2 105 -5 q 61 36 78 11 q 46 85 43 61 q 93 153 54 126 q 179 180 131 180 q 259 147 230 180 q 279 57 287 113 z "},"<":{"ha":725,"x_min":86,"x_max":755,"o":"m 755 712 l 738 591 l 279 423 q 484 339 378 383 q 686 255 589 295 l 669 134 l 86 372 l 102 476 l 755 712 z "},"=":{"ha":725,"x_min":67,"x_max":738,"o":"m 704 372 l 686 255 l 67 255 l 86 372 l 704 372 m 738 591 l 720 476 l 102 476 l 120 591 l 738 591 z "},">":{"ha":725,"x_min":49,"x_max":718,"o":"m 718 476 l 702 372 l 49 134 l 69 255 l 528 423 q 324 508 429 465 q 121 591 219 552 l 137 712 l 718 476 z "},"?":{"ha":591,"x_min":85,"x_max":624,"o":"m 168 300 q 192 381 174 343 q 231 450 209 418 q 280 508 254 482 q 332 559 307 535 q 397 634 366 592 q 429 723 428 675 q 413 801 433 766 q 342 835 394 835 q 288 828 316 835 q 235 808 260 821 q 191 777 211 795 q 160 739 171 760 l 117 744 l 140 889 q 251 928 193 912 q 374 945 308 945 q 557 883 490 945 q 621 714 624 821 q 603 643 619 675 q 564 582 587 610 q 509 529 540 554 q 449 481 479 504 q 362 401 402 444 q 311 299 321 358 l 303 249 l 158 249 l 168 300 m 93 97 q 137 164 99 142 q 225 180 176 187 q 301 142 271 172 q 324 70 330 112 q 279 5 316 26 q 192 -10 241 -16 q 114 27 144 -2 q 93 97 85 56 z "},"@":{"ha":1004,"x_min":67,"x_max":1009,"o":"m 856 487 q 837 626 859 559 q 774 744 816 693 q 674 826 733 795 q 548 857 616 857 q 427 829 484 857 q 327 750 370 801 q 257 624 284 699 q 228 457 230 549 q 247 298 225 369 q 311 176 270 227 q 407 99 351 126 q 525 72 463 72 q 664 94 591 72 q 805 160 738 117 l 777 35 q 658 -6 726 10 q 519 -21 589 -21 q 344 15 426 -21 q 200 115 262 51 q 103 267 139 179 q 67 457 67 354 q 117 651 75 562 q 223 806 158 741 q 373 908 289 872 q 548 945 457 945 q 730 910 645 945 q 876 814 814 875 q 974 670 939 754 q 1006 490 1009 587 q 984 380 1004 431 q 930 291 964 329 q 848 232 896 254 q 744 211 800 211 q 699 215 723 211 q 652 230 675 219 q 611 257 629 241 q 583 297 592 273 q 516 228 559 254 q 425 203 474 203 q 316 244 359 203 q 273 367 273 286 q 284 452 273 409 q 331 556 300 508 q 401 641 362 605 q 482 698 439 677 q 567 718 525 718 q 614 708 594 718 q 639 667 634 698 q 640 676 639 669 q 644 691 642 683 q 649 706 647 699 q 651 712 651 712 l 781 712 q 755 597 766 647 q 736 506 744 548 q 723 428 728 465 q 718 351 718 391 q 729 304 718 316 q 758 292 739 292 q 825 344 797 292 q 856 487 852 396 m 442 455 q 429 375 429 401 q 444 311 429 329 q 476 292 458 292 q 525 320 495 292 q 573 407 556 348 l 613 570 q 607 614 621 599 q 573 629 592 629 q 499 584 533 627 q 442 455 465 541 z "},"A":{"ha":891,"x_min":-43,"x_max":854,"o":"m 560 275 l 271 275 l 209 145 q 194 103 198 123 q 190 69 190 83 q 201 22 190 38 q 220 0 212 6 l -43 0 q -30 12 -42 2 q -1 42 -18 22 q 36 88 16 61 q 75 152 56 115 l 73 152 l 383 785 q 397 821 391 800 q 402 864 402 841 q 395 898 402 883 q 370 926 388 913 l 613 926 q 635 841 621 894 q 669 698 648 787 q 718 475 690 608 q 784 150 746 342 q 802 88 790 115 q 825 42 814 61 q 844 12 835 22 q 854 0 852 2 l 540 2 q 551 10 543 3 q 567 30 559 18 q 581 60 575 42 q 587 102 587 78 q 583 147 587 120 l 560 275 m 326 385 l 540 385 q 508 538 524 466 q 476 694 493 610 l 326 385 z "},"B":{"ha":741,"x_min":6,"x_max":722,"o":"m 709 688 q 659 580 702 632 q 548 504 615 528 q 627 469 594 492 q 682 415 661 445 q 713 350 704 385 q 720 279 722 314 q 680 166 712 217 q 598 77 648 115 q 481 20 548 40 q 337 0 415 0 l 16 0 l 6 11 q 34 47 10 13 q 70 150 59 81 l 166 785 q 168 848 171 821 q 160 892 166 875 q 149 920 155 910 q 142 932 144 931 l 391 932 q 533 919 471 932 q 636 876 595 905 q 696 800 677 846 q 709 688 715 754 m 292 437 q 268 278 279 356 q 244 117 257 200 l 330 117 q 461 165 412 117 q 517 289 509 214 q 486 398 525 359 q 366 437 447 437 l 292 437 m 351 816 l 308 546 l 361 546 q 458 583 420 546 q 503 678 496 619 q 477 784 511 752 q 386 816 444 816 l 351 816 z "},"C":{"ha":787,"x_min":53,"x_max":848,"o":"m 262 461 q 259 435 260 449 q 259 409 259 421 q 278 282 259 338 q 330 184 297 225 q 405 120 362 142 q 496 97 449 97 q 564 106 527 97 q 635 130 600 115 q 702 167 670 145 q 752 216 733 188 l 750 200 l 728 57 q 610 8 672 26 q 465 -10 548 -10 q 307 19 382 -10 q 176 102 233 48 q 86 232 120 156 q 53 404 53 308 q 53 433 53 418 q 56 461 54 447 q 116 667 67 576 q 235 818 164 757 q 393 912 307 880 q 565 945 479 945 q 735 927 659 945 q 848 888 811 908 l 817 696 q 777 750 803 725 q 718 794 750 776 q 647 824 685 813 q 572 835 610 835 q 462 809 514 835 q 369 734 410 782 q 299 615 327 685 q 262 461 271 546 z "},"D":{"ha":838,"x_min":8,"x_max":848,"o":"m 16 0 l 8 11 q 35 47 11 13 q 70 150 59 81 l 166 785 q 168 848 171 821 q 161 892 166 875 q 151 920 156 910 q 144 932 145 931 l 439 932 q 601 905 527 932 q 730 825 675 878 q 817 692 785 771 q 848 509 848 613 q 848 486 848 498 q 846 461 848 474 q 795 271 837 356 q 690 125 754 185 q 544 33 626 65 q 372 0 461 0 l 16 0 m 351 816 l 243 112 l 382 112 q 482 136 436 112 q 563 205 528 160 q 619 315 597 251 q 648 461 642 380 q 650 486 650 474 q 650 511 650 498 q 591 737 650 658 q 431 816 532 816 l 351 816 z "},"E":{"ha":627,"x_min":6,"x_max":694,"o":"m 551 0 l 16 0 l 6 11 q 34 47 10 13 q 70 150 59 81 l 166 785 q 171 832 171 811 q 156 906 171 881 q 139 932 140 931 l 694 932 l 675 760 l 670 758 q 634 801 659 785 q 552 816 608 816 l 351 816 q 329 676 340 744 q 307 536 318 608 l 476 536 q 518 542 496 536 q 557 556 540 548 q 587 571 575 564 q 603 581 600 578 l 580 374 q 563 387 575 378 q 534 405 551 396 q 498 419 517 413 q 460 425 479 425 l 291 425 l 244 117 l 444 117 q 533 133 504 117 q 586 182 562 150 l 589 179 l 551 0 z "},"F":{"ha":613,"x_min":-2,"x_max":694,"o":"m 289 425 l 249 147 q 247 89 244 115 q 254 45 249 64 q 263 15 259 27 q 270 0 268 3 l -2 0 q 10 13 0 2 q 30 43 19 24 q 53 89 42 62 q 70 150 64 117 l 166 785 q 171 832 171 811 q 156 906 171 881 q 139 932 140 931 l 694 932 l 675 760 l 674 758 q 637 801 663 785 q 556 816 611 816 l 351 816 q 329 676 340 744 q 307 536 318 608 l 492 536 q 533 544 512 536 q 571 560 554 551 q 600 577 587 568 q 616 589 613 586 l 584 388 q 544 412 575 399 q 476 425 514 425 l 289 425 z "},"G":{"ha":886,"x_min":48,"x_max":896,"o":"m 795 91 q 648 15 723 40 q 479 -10 573 -10 q 310 24 390 -10 q 171 118 230 57 q 80 266 112 179 q 56 461 48 353 q 113 667 64 576 q 235 818 161 757 q 400 912 310 880 q 580 945 490 945 q 671 940 626 945 q 756 927 717 936 q 827 908 795 918 q 876 888 859 897 l 841 707 q 736 801 806 766 q 589 835 666 835 q 470 809 527 835 q 370 734 413 782 q 297 615 326 685 q 262 461 268 546 q 273 313 255 380 q 324 198 291 246 q 405 124 358 150 q 506 97 452 97 q 568 107 541 97 q 623 134 594 117 l 653 329 q 654 386 658 362 q 643 426 650 410 q 630 450 637 442 q 621 460 623 458 l 896 458 q 884 447 892 455 q 864 423 875 439 q 845 383 854 407 q 832 326 837 359 l 795 91 z "},"H":{"ha":859,"x_min":8,"x_max":932,"o":"m 766 147 q 761 101 761 120 q 775 29 761 54 q 792 0 789 3 l 533 0 l 524 11 q 533 20 525 11 q 552 46 541 29 q 574 89 564 64 q 589 150 584 115 l 631 433 l 294 433 l 249 147 q 246 123 246 134 q 246 102 246 112 q 259 30 246 56 q 275 0 271 3 l 18 0 l 8 11 q 35 47 11 13 q 70 150 59 81 l 168 785 q 170 848 172 821 q 162 892 168 875 q 151 920 156 910 q 144 932 145 931 l 412 932 q 402 920 410 931 q 382 891 393 910 q 362 845 372 872 q 345 782 351 817 l 310 544 l 648 544 l 685 785 q 687 848 690 821 q 679 892 685 875 q 668 920 674 910 q 661 932 663 931 l 932 932 q 922 920 931 931 q 902 889 913 908 q 880 843 891 870 q 864 782 868 816 l 766 147 z "},"I":{"ha":337,"x_min":6,"x_max":410,"o":"m 247 147 q 244 123 244 134 q 244 102 244 112 q 257 30 244 56 q 273 0 270 3 l 16 0 l 6 11 q 34 47 10 13 q 69 150 57 81 l 166 785 q 168 848 171 821 q 160 892 166 875 q 149 920 155 910 q 142 932 144 931 l 410 932 q 400 920 409 931 q 381 891 391 910 q 360 845 370 872 q 343 782 350 817 l 247 147 z "},"J":{"ha":337,"x_min":-156,"x_max":421,"o":"m 249 99 q 201 -60 235 3 q 127 -160 168 -123 q 44 -213 86 -198 q -30 -228 2 -228 q -115 -208 -86 -228 q -156 -153 -144 -187 q -93 -141 -128 -153 q -27 -99 -59 -129 q 31 -16 5 -69 q 72 118 57 37 q 125 453 97 283 q 174 785 152 623 q 175 846 179 819 q 165 892 171 873 q 153 920 160 910 q 145 932 147 931 l 421 932 q 411 921 420 931 q 391 892 402 912 q 369 846 380 873 q 353 782 358 819 l 249 99 z "},"K":{"ha":829,"x_min":8,"x_max":864,"o":"m 305 535 l 543 819 q 573 864 565 845 q 580 896 581 883 q 573 919 580 910 q 562 932 567 928 l 854 932 l 864 921 q 799 887 845 913 q 709 809 754 860 l 458 549 l 661 121 q 729 39 691 69 q 782 0 766 10 l 433 0 q 454 21 442 8 q 466 57 466 34 q 461 84 466 70 q 449 115 457 97 l 450 115 l 294 445 l 249 147 q 246 123 246 134 q 246 102 246 112 q 259 30 246 56 q 275 0 271 3 l 16 0 l 8 11 q 35 47 11 13 q 70 150 59 81 l 166 785 q 168 848 171 821 q 161 892 166 875 q 151 920 156 910 q 144 932 145 931 l 417 932 q 405 920 413 929 q 384 891 396 910 q 361 845 372 872 q 345 782 350 817 l 305 535 z "},"L":{"ha":605,"x_min":6,"x_max":591,"o":"m 551 0 l 16 0 l 6 11 q 34 47 10 13 q 70 150 59 81 l 166 785 q 168 848 171 821 q 160 892 166 875 q 149 920 155 910 q 142 932 144 931 l 415 932 q 403 920 412 929 q 383 891 394 910 q 361 845 372 872 q 345 782 350 817 l 247 147 q 244 133 246 139 q 241 117 243 126 l 442 117 q 531 137 501 117 q 586 190 560 158 l 591 187 l 551 0 z "},"M":{"ha":1030,"x_min":11,"x_max":1092,"o":"m 536 300 q 731 632 655 503 q 851 835 808 761 q 890 902 878 880 q 902 932 902 924 l 1092 932 q 1079 920 1089 931 q 1058 892 1070 910 q 1034 845 1046 873 q 1017 782 1023 817 q 970 465 995 627 q 923 147 945 302 q 918 101 918 120 q 928 35 918 57 q 942 11 939 13 l 932 0 l 670 0 q 682 12 672 2 q 703 42 691 22 q 726 88 715 61 q 744 150 738 115 q 761 255 754 209 q 774 345 768 302 q 788 434 781 388 q 805 541 795 481 q 696 359 747 447 q 604 199 645 271 q 535 74 564 126 q 495 0 506 22 l 431 0 q 416 52 426 18 q 390 131 405 86 q 358 228 375 176 q 322 334 340 281 q 294 415 305 383 q 275 469 283 447 q 262 505 267 490 q 252 536 257 520 q 222 341 238 439 q 193 147 206 243 q 190 123 190 134 q 190 102 190 112 q 202 30 190 56 q 217 0 214 3 l 21 0 l 11 11 q 39 47 14 13 q 75 150 64 81 l 171 785 q 173 848 176 821 q 165 892 171 875 q 154 920 160 910 q 147 932 148 931 l 318 932 l 536 300 z "},"N":{"ha":808,"x_min":11,"x_max":876,"o":"m 693 0 l 632 0 q 620 15 632 0 q 589 57 608 30 q 545 121 570 85 q 496 201 520 158 q 423 330 461 263 q 351 456 385 398 q 295 556 318 514 q 268 608 273 597 q 233 378 251 492 q 198 147 216 263 q 193 101 193 120 q 207 29 193 54 q 223 0 220 3 l 21 0 l 11 11 q 38 46 14 13 q 75 150 62 80 l 171 785 q 173 848 176 821 q 165 892 171 875 q 154 920 160 910 q 147 932 148 931 l 276 932 l 292 921 q 323 880 295 924 q 390 766 351 835 q 465 639 426 704 q 537 518 504 575 q 594 417 570 461 q 626 353 618 374 l 693 785 q 686 892 701 856 q 669 932 672 929 l 867 932 l 876 923 q 848 884 872 920 q 814 782 824 849 l 693 0 z "},"O":{"ha":932,"x_min":57,"x_max":936,"o":"m 59 484 q 112 688 69 599 q 221 837 155 777 q 370 924 287 896 q 540 947 452 951 q 695 909 623 942 q 821 818 768 876 q 905 678 875 760 q 936 495 936 597 q 935 467 936 482 q 932 436 934 452 q 880 249 923 332 q 770 109 837 166 q 622 20 704 51 q 453 -11 540 -11 q 302 30 374 -5 q 176 123 230 65 q 89 259 121 180 q 57 431 57 337 q 57 457 57 444 q 59 484 57 471 m 257 476 q 255 447 255 461 q 254 418 254 433 q 269 292 254 350 q 312 193 284 235 q 379 128 340 152 q 466 101 418 104 q 564 122 519 97 q 646 193 610 147 q 705 304 682 239 q 738 445 728 369 q 740 476 739 460 q 741 504 741 492 q 682 736 741 650 q 527 829 624 822 q 428 809 474 832 q 346 740 382 785 q 287 627 311 694 q 257 476 263 560 z "},"P":{"ha":678,"x_min":6,"x_max":728,"o":"m 279 359 q 264 253 271 308 q 249 147 257 198 q 246 123 246 134 q 246 102 246 112 q 258 30 246 56 q 273 0 270 3 l 16 0 l 6 11 q 34 47 10 13 q 70 150 59 81 l 166 785 q 168 848 171 821 q 160 892 166 875 q 149 920 155 910 q 142 932 144 931 l 394 932 q 529 920 468 932 q 635 879 591 907 q 703 805 678 851 q 728 696 728 760 q 727 667 728 683 q 723 635 726 650 q 675 519 712 570 q 583 433 639 468 q 458 378 528 398 q 308 359 388 359 l 279 359 m 351 816 q 324 644 338 728 q 297 473 310 560 l 326 473 q 461 516 409 473 q 527 639 514 560 q 530 663 530 651 q 530 685 530 674 q 491 786 530 757 q 380 816 452 816 l 351 816 z "},"Q":{"ha":934,"x_min":64,"x_max":943,"o":"m 937 -86 q 880 -176 928 -142 q 760 -209 832 -209 q 681 -200 722 -209 q 601 -167 640 -190 q 525 -105 562 -144 q 460 -10 489 -67 q 305 26 377 -6 q 180 113 233 57 q 95 247 126 169 q 64 420 64 324 q 65 449 64 433 q 67 477 65 465 q 125 675 80 587 q 235 825 169 763 q 381 917 300 886 q 546 945 461 948 q 703 910 631 942 q 829 822 776 878 q 913 686 883 766 q 943 503 943 605 q 943 474 943 489 q 940 444 942 460 q 908 293 934 362 q 840 169 881 223 q 744 76 798 115 q 627 14 690 37 q 714 -67 658 -45 q 829 -89 771 -89 q 907 -80 870 -89 l 937 -86 m 263 471 q 261 441 262 457 q 260 413 260 426 q 275 288 260 345 q 319 191 291 231 q 387 126 348 150 q 474 101 426 102 q 572 123 527 97 q 654 196 618 148 q 714 308 690 243 q 746 450 738 374 q 748 478 747 463 q 749 506 749 493 q 690 738 749 653 q 535 829 632 824 q 436 807 482 830 q 354 738 390 784 q 295 623 318 691 q 263 471 271 556 z "},"R":{"ha":779,"x_min":6,"x_max":730,"o":"m 283 375 l 249 147 q 246 123 246 134 q 246 102 246 112 q 258 30 246 56 q 273 0 270 3 l 16 0 l 6 11 q 34 47 10 13 q 70 150 59 81 l 166 785 q 168 848 171 821 q 160 892 166 875 q 149 920 155 910 q 142 932 144 931 l 367 932 q 502 916 441 932 q 607 864 564 899 q 672 776 650 829 q 690 650 694 723 q 671 573 686 611 q 632 501 656 535 q 576 441 608 468 q 509 401 544 415 l 634 120 q 682 42 653 70 q 730 0 712 13 l 409 0 q 430 24 417 8 q 444 70 444 40 q 434 117 444 88 l 434 115 l 318 375 l 283 375 m 351 816 l 299 487 l 314 487 q 444 535 399 487 q 493 650 489 583 q 467 776 501 736 q 361 816 433 816 l 351 816 z "},"S":{"ha":648,"x_min":16,"x_max":675,"o":"m 431 208 q 430 267 437 241 q 406 317 423 294 q 366 359 390 340 q 318 398 343 378 q 237 461 278 426 q 166 536 196 495 q 120 623 136 576 q 112 726 104 670 q 147 820 118 779 q 220 888 176 860 q 319 931 263 916 q 439 945 375 945 q 585 927 528 945 q 675 888 642 908 l 653 739 l 651 739 q 624 776 645 758 q 576 806 603 793 q 517 827 549 819 q 457 835 485 835 q 349 808 386 835 q 303 739 311 781 q 311 686 300 712 q 339 638 321 661 q 382 592 358 615 q 433 549 405 570 q 516 477 477 512 q 580 404 554 442 q 619 321 607 366 q 623 222 631 276 q 582 121 613 164 q 503 45 551 77 q 394 -2 455 14 q 263 -18 332 -18 q 112 1 172 -18 q 16 42 51 19 l 27 206 l 30 208 q 64 164 38 185 q 121 128 89 144 q 188 102 153 112 q 252 93 223 93 q 378 127 332 93 q 431 208 423 161 z "},"T":{"ha":710,"x_min":73,"x_max":806,"o":"m 110 932 l 806 932 l 771 738 q 710 798 746 781 q 621 816 675 816 l 530 816 q 478 481 504 648 q 428 147 452 314 q 425 123 425 134 q 425 102 425 112 q 437 30 425 56 q 452 0 449 3 l 195 0 l 185 11 q 213 47 188 13 q 249 150 238 81 l 350 816 l 260 816 q 149 791 200 816 q 73 734 99 766 l 78 755 l 110 932 z "},"U":{"ha":862,"x_min":88,"x_max":932,"o":"m 273 311 q 268 259 268 283 q 300 144 268 187 q 399 102 332 102 q 448 108 421 102 q 500 123 474 113 q 551 146 527 133 q 592 174 575 160 q 639 480 615 327 q 685 785 663 632 q 687 848 690 821 q 679 892 685 875 q 668 920 674 910 q 661 932 663 931 l 932 932 q 922 920 931 931 q 902 889 913 908 q 880 843 891 870 q 864 782 870 816 q 814 465 840 627 q 766 147 789 302 q 763 123 763 134 q 763 102 763 112 q 776 30 763 56 q 792 0 789 3 l 600 0 q 591 31 594 10 q 584 72 587 53 q 529 31 560 46 q 465 7 498 16 q 402 -6 433 -2 q 350 -10 372 -10 q 227 7 278 -10 q 146 54 177 24 q 101 127 115 85 q 88 222 88 169 q 90 264 88 241 q 96 310 93 287 l 168 785 q 172 830 172 811 q 158 903 172 876 q 140 932 144 929 l 417 932 q 405 920 413 929 q 384 891 396 910 q 361 845 372 872 q 345 782 350 817 l 273 311 z "},"V":{"ha":918,"x_min":110,"x_max":1017,"o":"m 487 287 l 744 787 q 760 834 755 811 q 765 873 765 857 q 759 912 765 897 q 750 932 754 926 l 1017 932 q 1001 919 1014 929 q 970 889 988 908 q 932 843 951 870 q 892 781 912 816 q 775 565 825 658 q 686 402 725 473 q 619 278 648 330 q 564 180 589 225 q 515 91 540 134 q 463 0 490 48 l 377 0 l 182 782 q 162 843 174 816 q 140 889 150 870 q 121 920 129 908 q 110 932 112 931 l 420 932 q 409 920 418 931 q 392 892 401 910 q 379 846 383 873 q 382 785 375 819 l 487 287 z "},"W":{"ha":1218,"x_min":115,"x_max":1330,"o":"m 429 337 q 564 635 496 487 q 699 932 631 784 l 793 932 l 880 337 l 1073 787 q 1090 837 1086 814 q 1094 875 1094 859 q 1089 911 1094 897 q 1081 932 1084 924 l 1330 932 q 1288 891 1322 929 q 1223 781 1253 852 q 1068 457 1129 584 q 966 247 1007 330 q 896 108 924 163 q 843 0 868 53 l 761 0 l 658 538 q 591 404 619 461 q 542 301 564 346 q 502 220 520 255 q 467 149 484 184 q 433 79 450 115 q 394 0 415 43 l 310 0 q 288 112 300 45 q 259 273 276 179 q 220 492 243 367 q 169 782 198 618 q 139 889 156 854 q 115 932 121 924 l 413 932 q 404 921 412 931 q 388 893 396 912 q 376 847 380 875 q 377 784 372 819 l 429 337 z "},"X":{"ha":915,"x_min":-5,"x_max":993,"o":"m 603 503 l 773 121 q 799 73 784 94 q 829 38 814 53 q 857 14 845 24 q 876 0 870 5 l 535 0 l 525 10 q 546 29 535 16 q 557 69 557 42 q 548 117 557 88 l 548 115 q 521 172 533 147 q 498 223 509 198 q 475 273 487 247 q 450 330 463 299 q 362 223 407 275 q 276 115 318 171 q 250 70 257 89 q 244 37 243 51 q 252 14 246 22 q 265 0 259 5 l 3 0 l 3 13 l 8 16 l -5 14 q 48 49 13 24 q 120 121 83 73 l 393 461 l 238 811 q 182 895 216 865 q 136 932 148 924 l 474 932 l 484 923 q 465 904 474 916 q 455 868 455 892 q 465 816 455 845 l 465 817 l 546 634 l 694 819 l 694 817 q 722 863 715 843 q 728 896 730 883 q 720 919 726 910 q 707 932 714 928 l 983 932 l 993 921 q 932 886 975 913 q 851 809 889 859 l 603 503 z "},"Y":{"ha":832,"x_min":99,"x_max":936,"o":"m 524 366 l 527 367 l 493 147 q 489 101 489 120 q 502 29 489 54 q 519 0 516 3 l 260 0 l 251 11 q 260 20 252 11 q 279 46 268 29 q 301 89 291 64 q 316 150 311 115 l 348 370 l 350 367 l 176 813 l 176 811 q 133 888 155 857 q 99 932 110 920 l 407 932 q 392 909 404 929 q 380 859 380 889 q 382 836 380 846 q 386 816 383 825 l 386 817 l 496 548 l 674 817 q 694 857 688 838 q 699 892 699 876 q 696 917 699 907 q 691 932 693 928 l 936 932 q 894 894 929 926 q 822 811 859 862 l 524 366 z "},"Z":{"ha":754,"x_min":-13,"x_max":830,"o":"m 3 94 q 72 188 24 126 q 184 330 120 251 q 325 504 249 410 q 479 693 401 597 l 578 816 l 246 816 q 157 799 187 816 q 102 750 128 782 l 101 755 l 133 932 l 830 932 l 817 852 q 765 781 803 830 q 672 664 726 731 q 553 518 618 597 q 423 361 489 439 q 325 242 377 302 q 222 117 273 182 l 568 117 q 656 133 627 117 q 710 182 685 150 l 715 179 l 683 0 l -13 0 l 3 94 z "},"[":{"ha":465,"x_min":6,"x_max":536,"o":"m 358 -235 l 16 -235 l 6 -223 q 21 -188 10 -222 q 43 -83 32 -155 l 176 785 q 182 842 180 817 q 184 881 184 867 q 180 916 184 904 q 174 932 177 929 l 536 932 l 527 766 q 459 831 495 814 q 364 848 423 848 l 362 848 l 212 -148 q 265 -147 243 -148 q 307 -140 287 -145 q 347 -127 327 -136 q 391 -104 367 -118 l 358 -235 z "},"\\":{"ha":489,"x_min":126,"x_max":425,"o":"m 276 -236 l 126 963 l 275 963 l 425 -236 l 276 -236 z "},"]":{"ha":465,"x_min":-18,"x_max":501,"o":"m -10 -99 q 28 -126 11 -117 q 63 -140 45 -136 q 103 -147 81 -145 q 153 -148 125 -148 l 156 -148 l 307 848 q 207 830 247 848 q 118 765 166 813 l 158 932 l 490 932 l 501 920 q 476 782 498 920 l 343 -86 q 338 -142 340 -118 q 335 -184 335 -166 q 338 -219 335 -206 q 343 -235 340 -231 l -18 -235 l -10 -99 z "},"^":{"ha":587,"x_min":26,"x_max":595,"o":"m 595 481 l 452 481 l 356 785 q 262 633 308 709 q 169 481 216 557 l 26 481 l 332 977 l 441 977 l 595 481 z "},"_":{"ha":619,"x_min":-29,"x_max":621,"o":"m 621 -96 l 602 -212 l -29 -212 l -11 -96 l 621 -96 z "},"`":{"ha":362,"x_min":8,"x_max":308,"o":"m 13 923 q 46 928 16 926 q 113 929 77 929 l 209 929 q 216 881 206 910 q 240 824 225 852 q 275 769 255 795 q 308 726 294 742 l 176 726 q 129 759 158 738 q 73 808 101 781 q 26 865 45 835 q 13 924 8 896 l 13 923 z "},"a":{"ha":685,"x_min":43,"x_max":712,"o":"m 599 125 q 606 76 594 94 q 650 65 618 57 q 596 9 632 24 q 530 -6 560 -6 q 469 12 498 -6 q 428 67 441 30 q 370 11 407 30 q 292 -8 334 -8 q 188 14 235 -8 q 108 78 140 37 q 59 180 75 120 q 48 314 43 239 q 82 452 54 390 q 153 560 110 514 q 250 631 196 605 q 359 656 303 656 q 437 641 399 656 q 492 594 476 626 l 509 648 l 712 648 q 689 618 709 645 q 659 532 669 591 l 599 125 m 227 322 q 231 220 222 262 q 256 153 239 179 q 296 117 273 128 q 342 105 319 105 q 429 176 398 105 l 428 174 q 453 333 441 254 q 477 492 465 412 l 477 496 q 441 534 461 524 q 391 544 421 544 q 284 489 332 544 q 227 322 236 433 z "},"b":{"ha":706,"x_min":18,"x_max":688,"o":"m 316 599 q 377 641 343 626 q 449 656 410 656 q 626 570 564 656 q 677 335 688 484 q 638 193 670 255 q 557 88 605 131 q 450 22 509 45 q 332 0 391 0 l 18 0 q 38 33 21 3 q 64 118 54 62 q 119 477 91 294 q 174 838 147 661 q 176 886 177 865 q 172 920 176 907 q 164 941 168 934 q 160 950 161 948 l 405 971 q 398 962 404 969 q 382 939 391 955 q 366 902 374 924 q 353 849 358 880 l 316 599 m 500 327 q 477 496 508 449 q 390 544 445 544 q 336 528 361 544 q 297 484 311 511 l 295 477 l 239 107 l 305 107 q 370 121 337 107 q 429 161 402 134 q 476 230 457 188 q 500 327 495 271 z "},"c":{"ha":591,"x_min":48,"x_max":603,"o":"m 231 318 q 257 152 222 214 q 369 89 292 89 q 457 110 407 89 q 565 169 506 131 l 532 48 q 456 9 508 27 q 329 -10 404 -10 q 217 9 268 -10 q 129 63 166 27 q 69 152 91 99 q 48 271 48 204 q 48 294 48 281 q 49 318 48 307 q 91 459 57 396 q 173 566 125 522 q 283 634 222 610 q 409 658 345 658 q 520 646 465 658 q 603 618 575 634 l 584 485 q 509 533 552 512 q 420 554 466 554 q 293 491 343 554 q 231 318 243 428 z "},"d":{"ha":686,"x_min":35,"x_max":744,"o":"m 38 314 q 74 449 45 386 q 149 557 104 511 q 251 630 195 603 q 369 656 308 656 q 431 647 394 656 q 489 615 468 637 l 522 838 q 527 883 527 864 q 519 932 527 916 q 508 950 511 947 l 733 967 l 744 956 q 726 932 741 955 q 701 849 710 908 l 591 115 q 594 91 587 99 q 611 81 600 83 q 634 82 621 80 q 658 89 647 85 q 635 42 650 61 q 600 11 619 22 q 561 -4 581 0 q 525 -8 541 -8 q 458 16 489 -5 q 418 73 428 37 q 353 15 391 38 q 268 -8 314 -8 q 99 62 163 -8 q 35 259 35 133 q 36 286 35 271 q 38 314 37 300 m 216 322 q 213 298 214 310 q 212 275 212 286 q 221 196 212 228 q 245 143 230 163 q 279 114 260 123 q 319 105 299 105 q 374 125 346 105 q 421 171 401 145 l 474 528 q 434 541 457 536 q 394 546 412 546 q 279 490 330 546 q 216 322 227 434 z "},"e":{"ha":642,"x_min":43,"x_max":656,"o":"m 420 656 q 533 639 487 656 q 607 595 580 623 q 646 534 635 568 q 651 466 656 500 q 626 404 645 434 q 572 350 607 374 q 485 311 536 326 q 359 295 433 295 l 231 295 q 237 218 227 255 q 270 152 247 180 q 323 106 292 123 q 391 89 354 89 q 497 112 447 89 q 586 171 548 134 l 570 48 q 485 9 544 27 q 351 -10 425 -10 q 227 10 284 -10 q 128 71 169 30 q 65 173 86 112 q 49 318 43 235 q 89 453 56 391 q 174 560 123 516 q 289 631 225 605 q 420 656 353 656 m 404 552 q 306 507 348 552 q 246 394 263 461 l 375 394 q 451 417 421 394 q 485 466 481 439 q 473 525 490 498 q 404 552 455 552 z "},"f":{"ha":434,"x_min":-101,"x_max":584,"o":"m 479 551 l 334 546 q 287 246 311 396 q 241 -56 263 96 q 210 -140 233 -101 q 156 -208 187 -179 q 91 -255 126 -238 q 24 -273 56 -273 q -58 -252 -29 -273 q -101 -200 -88 -231 q 8 -153 -40 -200 q 67 -38 56 -107 l 155 549 l 62 549 l 75 648 l 171 648 q 179 704 174 677 q 187 758 184 731 q 218 847 195 808 q 275 913 241 886 q 350 955 308 940 q 439 969 393 969 q 530 958 498 969 q 584 939 562 947 l 567 824 q 513 854 541 845 q 458 864 485 864 q 400 839 425 864 q 364 754 375 814 q 356 702 361 726 q 348 648 351 677 l 493 648 l 479 551 z "},"g":{"ha":635,"x_min":-14,"x_max":720,"o":"m 85 441 q 122 543 93 500 q 194 613 152 586 q 287 651 236 640 q 391 658 338 663 q 472 646 437 653 q 533 631 506 639 q 575 619 556 623 q 607 615 594 615 q 623 615 613 615 q 643 621 632 616 q 663 636 653 626 q 682 666 674 647 q 712 632 704 658 q 718 594 720 607 q 704 548 718 567 q 669 521 690 530 q 626 515 648 512 q 586 530 603 517 q 619 454 613 495 q 623 394 626 413 q 585 299 615 340 q 513 229 556 257 q 420 188 471 201 q 319 180 369 176 q 286 184 307 182 q 244 192 265 185 q 214 163 216 177 q 243 140 211 150 q 332 123 276 129 q 457 95 407 115 q 537 47 508 75 q 577 -14 567 19 q 583 -83 587 -48 q 548 -172 575 -129 q 479 -243 522 -214 q 378 -289 436 -273 q 252 -299 321 -305 q 148 -279 196 -294 q 63 -242 99 -265 q 6 -187 27 -219 q -14 -115 -14 -155 q 10 -50 -14 -73 q 67 -16 35 -27 q 150 0 104 -3 q 139 -22 144 -11 q 133 -46 136 -34 q 133 -77 129 -59 q 168 -150 137 -121 q 270 -187 198 -179 q 333 -182 305 -190 q 381 -160 361 -174 q 412 -126 401 -145 q 426 -88 423 -107 l 426 -89 q 425 -59 428 -75 q 408 -29 421 -43 q 368 -4 394 -14 q 299 10 342 6 q 125 56 179 22 q 80 140 72 89 q 114 194 86 172 q 169 235 142 216 q 98 323 123 268 q 85 441 73 378 m 267 421 q 276 318 257 359 q 332 273 295 276 q 402 307 372 270 q 439 404 431 343 q 434 517 452 476 q 375 562 417 559 q 308 528 338 565 q 267 421 278 492 z "},"h":{"ha":714,"x_min":24,"x_max":669,"o":"m 647 22 q 532 -8 584 -8 q 480 2 500 -8 q 449 30 460 13 q 435 68 437 46 q 436 113 433 89 l 485 425 q 478 510 493 476 q 426 544 463 544 q 365 529 399 544 q 299 487 330 514 l 241 115 q 242 32 233 61 q 254 0 251 3 l 30 0 l 24 11 q 42 41 27 14 q 65 118 56 67 l 174 838 q 172 920 184 894 q 156 950 160 947 l 385 967 l 396 958 q 377 930 393 955 q 353 849 361 905 l 318 603 q 403 643 359 629 q 489 656 447 656 q 576 643 541 656 q 632 609 611 631 q 661 560 653 587 q 669 500 669 532 q 667 465 669 482 q 663 433 666 449 l 615 110 q 611 69 610 85 q 617 47 613 54 q 627 38 621 40 q 639 35 634 35 l 647 22 z "},"i":{"ha":338,"x_min":62,"x_max":386,"o":"m 273 22 q 161 -8 211 -8 q 109 2 129 -8 q 78 30 89 13 q 65 69 67 46 q 65 113 62 91 l 126 527 q 131 568 131 552 q 122 620 131 603 q 110 640 113 637 l 338 656 l 350 647 q 330 619 346 643 q 307 540 314 595 l 241 110 q 239 72 238 86 q 245 49 241 57 q 255 38 249 42 q 267 35 262 35 l 273 22 m 147 857 q 192 934 155 908 q 278 955 230 959 q 358 910 329 947 q 382 824 386 873 q 334 746 374 771 q 247 730 294 722 q 170 772 200 738 q 147 857 140 806 z "},"j":{"ha":338,"x_min":-88,"x_max":391,"o":"m 230 -32 q 164 -184 216 -123 q 43 -259 112 -246 q -44 -255 -13 -270 q -88 -211 -75 -239 q 6 -154 -27 -198 q 49 -40 38 -110 l 136 527 q 136 603 142 576 q 125 640 129 631 l 367 659 q 359 651 366 658 q 345 628 353 643 q 329 591 337 613 q 316 540 321 570 l 230 -32 m 152 857 q 197 934 160 908 q 283 955 235 959 q 362 910 334 947 q 386 824 391 873 q 338 746 378 771 q 252 730 299 722 q 175 772 204 738 q 152 857 145 806 z "},"k":{"ha":698,"x_min":18,"x_max":690,"o":"m 659 57 q 597 10 627 24 q 536 -5 567 -5 q 482 7 506 -5 q 439 39 458 19 q 405 83 420 59 q 380 131 391 107 l 307 310 l 263 263 q 251 188 259 230 q 241 115 244 147 q 239 65 238 86 q 243 30 239 45 q 249 9 246 16 q 254 0 252 2 l 18 0 q 38 33 21 3 q 65 118 54 62 l 174 840 q 172 922 184 896 q 156 951 160 948 l 385 969 l 396 959 q 377 932 393 956 q 353 851 361 907 l 292 444 l 410 559 q 431 587 425 573 q 438 614 437 602 q 437 635 439 626 q 431 648 434 645 l 678 648 l 686 640 l 667 634 l 670 634 q 623 607 656 626 q 565 559 591 587 l 444 442 l 514 259 q 587 116 549 168 q 672 73 626 64 l 659 57 m 688 639 l 686 640 l 690 640 l 688 639 z "},"l":{"ha":338,"x_min":61,"x_max":394,"o":"m 273 22 q 160 -8 211 -8 q 107 2 128 -8 q 76 30 86 13 q 63 69 65 46 q 64 113 61 91 q 118 476 89 291 q 172 840 147 661 q 171 922 182 896 q 156 951 160 948 l 383 969 l 394 959 q 376 932 391 956 q 353 851 361 907 l 239 110 q 238 71 236 86 q 243 48 239 56 q 254 38 247 40 q 267 35 260 35 l 273 22 z "},"m":{"ha":1025,"x_min":38,"x_max":998,"o":"m 974 22 q 860 -8 908 -8 q 776 30 797 -8 q 763 113 755 67 l 813 428 q 806 511 817 477 q 768 543 795 544 q 688 508 722 538 q 648 447 655 479 l 599 115 q 599 30 591 57 q 611 0 608 3 l 386 0 l 380 11 q 398 41 383 14 q 421 118 413 67 l 468 428 q 464 512 476 481 q 421 541 452 544 q 362 519 388 536 q 310 469 337 501 l 255 115 q 251 70 251 86 q 257 25 251 42 q 267 0 263 8 l 46 0 l 38 13 q 56 38 42 14 q 78 118 70 61 l 140 535 q 144 584 145 564 q 139 619 142 605 q 132 639 136 632 q 126 648 128 647 l 327 648 q 326 615 327 642 q 322 575 324 589 q 394 631 359 611 q 471 655 429 651 q 584 632 543 659 q 642 564 626 605 q 722 633 675 615 q 814 655 768 651 q 903 650 867 659 q 959 620 939 640 q 989 572 980 600 q 998 512 998 544 q 996 478 998 496 q 991 444 995 460 l 940 110 q 937 69 936 85 q 943 47 939 54 q 955 38 948 40 q 966 35 961 35 l 974 22 z "},"n":{"ha":714,"x_min":30,"x_max":683,"o":"m 496 429 q 492 512 504 481 q 452 543 481 544 q 378 520 415 540 q 307 468 342 500 l 254 115 q 249 70 249 86 q 255 25 249 42 q 265 0 262 8 l 30 0 q 50 33 34 3 q 77 118 67 62 l 139 535 q 139 619 148 594 q 126 648 129 645 l 327 648 q 326 615 327 640 q 322 567 326 589 q 413 630 369 608 q 500 656 457 651 q 590 651 554 661 q 647 622 626 642 q 675 574 667 602 q 683 514 683 546 q 678 449 683 482 l 626 110 q 625 72 623 86 q 633 49 627 57 q 647 38 639 42 q 661 35 655 35 l 669 24 q 544 -8 605 -8 q 492 2 512 -8 q 461 30 473 13 q 448 69 450 46 q 449 113 445 91 l 496 429 l 496 429 z "},"o":{"ha":699,"x_min":46,"x_max":686,"o":"m 51 329 q 88 473 57 410 q 164 576 118 535 q 271 639 211 618 q 394 658 330 659 q 510 629 457 655 q 603 557 564 603 q 665 447 643 511 q 685 305 686 383 q 649 171 678 230 q 573 71 619 112 q 467 9 527 30 q 343 -10 407 -13 q 223 17 279 -8 q 128 85 168 42 q 67 191 88 129 q 51 329 46 252 m 233 322 q 257 155 225 219 q 350 88 289 91 q 454 145 413 85 q 503 311 495 206 q 480 487 512 421 q 386 554 447 552 q 283 495 324 557 q 233 322 241 433 z "},"p":{"ha":710,"x_min":5,"x_max":709,"o":"m 701 335 q 667 192 694 255 q 595 86 639 129 q 496 20 551 43 q 380 -3 441 -3 q 318 6 353 -3 q 252 34 283 14 l 227 -134 q 222 -177 222 -158 q 228 -227 222 -212 q 238 -246 235 -243 l 18 -279 l 5 -268 q 22 -244 8 -267 q 43 -161 35 -222 l 150 535 q 147 615 158 587 q 133 648 136 643 l 337 648 q 338 625 337 640 q 335 592 338 610 q 399 640 369 624 q 468 656 429 656 q 646 569 583 656 q 701 335 709 482 m 524 327 q 500 496 532 449 q 413 544 468 544 q 359 525 386 544 q 319 477 332 506 l 265 126 q 310 113 286 118 q 353 107 334 107 q 413 121 385 107 q 465 161 442 134 q 504 230 489 188 q 524 327 519 271 z "},"q":{"ha":694,"x_min":67,"x_max":736,"o":"m 362 -268 q 378 -243 366 -265 q 401 -161 391 -222 l 439 46 q 381 4 415 16 q 310 -8 346 -8 q 208 14 254 -8 q 129 78 161 37 q 82 180 97 120 q 72 314 67 239 q 105 452 78 390 q 175 560 133 514 q 270 631 217 605 q 380 656 322 656 q 460 639 421 656 q 520 586 498 621 q 524 621 522 605 q 530 648 527 637 l 736 648 q 713 618 733 645 q 683 532 693 591 l 583 -134 q 580 -157 580 -147 q 580 -177 580 -168 q 587 -227 580 -211 q 599 -246 595 -243 l 383 -279 l 362 -268 m 251 322 q 252 220 244 262 q 277 153 260 179 q 315 117 294 128 q 359 105 337 105 q 415 129 390 105 q 453 174 441 152 l 500 492 l 501 501 q 465 534 489 524 q 412 544 442 544 q 307 489 353 544 q 251 322 260 433 z "},"r":{"ha":476,"x_min":32,"x_max":536,"o":"m 471 656 q 503 654 484 656 q 536 647 522 651 l 522 509 q 466 535 495 525 q 420 544 437 544 q 360 528 386 544 q 308 487 334 512 l 252 115 q 253 38 246 65 q 265 0 260 11 l 42 0 l 32 11 q 51 37 35 13 q 75 118 67 61 l 139 535 q 138 612 147 586 q 125 648 129 639 l 326 648 q 326 618 326 640 q 322 578 326 595 q 394 639 359 621 q 471 656 429 656 z "},"s":{"ha":559,"x_min":37,"x_max":557,"o":"m 335 160 q 316 214 340 192 q 255 259 292 236 q 196 303 227 279 q 140 353 164 326 q 104 414 117 380 q 97 490 91 449 q 130 570 105 538 q 193 621 155 602 q 279 649 231 640 q 382 658 327 658 q 483 646 437 658 q 557 618 528 634 l 530 468 q 499 499 517 484 q 460 526 481 514 q 417 545 439 538 q 377 552 396 552 q 310 541 337 552 q 276 493 283 530 q 296 439 271 461 q 356 394 321 417 q 415 352 385 375 q 469 300 445 329 q 506 237 493 271 q 512 161 519 203 q 478 85 504 118 q 413 32 452 53 q 325 1 374 11 q 223 -10 276 -10 q 116 5 168 -10 q 37 35 64 19 l 42 198 q 85 160 61 179 q 134 128 109 142 q 186 105 160 113 q 236 96 212 96 q 301 109 273 96 q 335 160 329 123 z "},"t":{"ha":493,"x_min":57,"x_max":503,"o":"m 490 549 l 329 549 q 304 387 316 468 q 279 225 292 307 q 287 135 271 164 q 334 105 302 105 q 397 115 361 105 q 469 160 433 125 l 452 49 q 415 28 433 38 q 377 10 398 18 q 330 -3 356 2 q 270 -8 303 -8 q 137 38 179 -8 q 96 158 96 83 q 97 187 96 172 q 99 217 97 201 l 152 549 l 57 549 l 70 648 l 166 648 l 187 776 q 231 788 206 779 q 282 809 255 797 q 333 833 308 821 q 375 859 358 846 l 343 648 l 503 648 l 490 549 z "},"u":{"ha":720,"x_min":85,"x_max":736,"o":"m 268 225 q 277 138 262 172 q 338 104 292 104 q 390 119 358 104 q 457 161 423 134 l 512 535 q 510 615 520 587 q 495 648 500 643 l 736 648 q 715 616 733 645 q 688 532 698 587 l 626 115 q 629 32 618 59 q 645 0 640 5 l 439 0 l 444 72 q 356 14 405 35 q 265 -8 307 -8 q 177 5 212 -8 q 122 39 142 18 q 93 89 102 61 q 85 148 85 117 q 86 183 85 166 q 91 217 88 200 l 139 535 q 144 576 144 559 q 135 628 144 611 q 123 648 126 645 l 350 648 l 359 639 q 340 613 356 637 q 316 532 324 589 l 268 225 z "},"v":{"ha":650,"x_min":69,"x_max":720,"o":"m 125 532 q 93 615 112 584 q 69 648 73 645 l 319 647 q 310 627 316 643 q 303 580 303 611 q 308 535 303 559 q 337 400 324 465 q 366 259 350 335 l 506 536 q 526 584 520 564 q 532 619 532 605 q 528 639 532 632 q 525 648 525 647 l 720 648 q 688 618 715 645 q 631 530 661 591 q 496 270 551 370 q 407 104 442 169 q 378 52 394 83 q 351 0 362 21 l 244 0 l 125 532 z "},"w":{"ha":950,"x_min":70,"x_max":1015,"o":"m 559 0 q 555 7 557 -2 q 546 48 552 16 q 528 143 540 80 q 495 313 516 206 l 342 0 l 247 0 l 126 532 q 94 615 113 584 q 70 648 75 645 l 330 647 q 314 613 326 642 q 310 535 303 584 q 321 465 316 496 q 330 404 326 434 q 340 342 335 374 q 351 270 345 310 l 530 648 l 619 648 l 680 273 q 742 404 712 342 q 805 536 773 466 q 824 617 825 589 q 821 648 822 645 l 1015 647 q 982 610 1007 640 q 929 530 956 580 l 669 0 l 559 0 z "},"x":{"ha":651,"x_min":-18,"x_max":709,"o":"m 431 338 q 483 228 457 283 q 532 120 509 174 q 584 36 559 64 q 619 0 610 8 l 370 0 l 362 13 q 367 18 364 13 q 371 36 370 24 q 368 67 372 48 q 350 113 364 86 l 316 187 l 257 113 q 231 70 238 89 q 223 37 223 51 q 225 14 222 22 q 231 0 228 5 l -18 0 q 28 33 -10 5 q 112 120 65 61 l 259 310 q 211 419 235 364 q 161 530 187 474 q 109 617 136 591 q 73 648 81 643 l 338 647 q 333 638 337 645 q 327 617 329 631 q 328 583 326 603 q 343 536 330 564 l 378 458 q 408 497 393 476 q 436 536 423 519 q 466 583 458 564 q 476 614 474 602 q 474 632 477 626 q 469 639 471 639 l 479 648 l 709 647 q 662 609 698 639 q 584 530 626 580 l 431 338 z "},"y":{"ha":664,"x_min":-10,"x_max":733,"o":"m 11 -129 q 63 -145 34 -147 q 125 -124 93 -144 q 190 -65 158 -104 q 247 30 222 -27 l 134 532 q 102 614 121 583 q 80 648 83 645 l 332 648 q 321 631 330 647 q 311 586 311 616 q 319 535 311 567 l 378 260 l 517 536 l 516 536 q 538 613 538 586 q 536 648 538 640 l 733 648 q 698 616 726 643 q 639 530 669 589 q 540 334 581 417 q 467 190 498 251 q 413 87 436 129 q 372 13 390 45 q 285 -123 326 -70 q 208 -206 244 -176 q 137 -248 171 -236 q 73 -260 104 -260 q 6 -229 22 -260 q 3 -156 -10 -198 l 11 -129 z "},"z":{"ha":543,"x_min":-3,"x_max":597,"o":"m 10 78 q 57 140 26 99 q 128 232 89 182 q 208 337 166 283 q 284 437 249 391 q 325 492 305 465 q 367 548 345 520 l 251 548 q 202 545 223 548 q 160 537 180 543 q 121 523 140 532 q 75 500 101 514 l 101 648 l 597 648 l 589 586 q 546 528 576 568 q 478 439 516 489 q 398 335 441 390 q 319 233 356 281 q 254 149 283 185 q 216 101 225 113 l 345 101 q 449 107 405 101 q 520 137 492 113 l 496 0 l -3 0 l 10 78 z "},"{":{"ha":484,"x_min":40,"x_max":557,"o":"m 243 -65 q 246 -125 238 -102 q 276 -148 254 -148 q 335 -144 307 -148 q 410 -118 364 -140 l 378 -235 l 196 -235 q 144 -226 169 -235 q 99 -198 118 -217 q 69 -150 80 -179 q 64 -83 59 -121 l 112 239 q 108 260 112 249 q 95 282 104 271 q 73 299 86 292 q 40 307 59 307 l 53 391 q 96 398 78 391 q 124 417 113 405 q 139 440 134 428 q 145 461 144 452 l 195 785 q 220 850 201 822 q 263 896 238 878 q 316 924 287 915 q 370 932 345 932 l 557 932 l 548 817 q 483 850 516 849 q 429 848 450 851 q 394 823 410 845 q 367 746 377 801 l 324 465 q 291 402 319 436 q 222 353 262 367 q 276 307 257 337 q 292 251 295 278 l 243 -65 z "},"|":{"ha":287,"x_min":5,"x_max":335,"o":"m 5 -236 l 185 963 l 335 963 l 155 -236 l 5 -236 z "},"}":{"ha":484,"x_min":-30,"x_max":482,"o":"m 203 254 q 235 309 208 281 q 305 353 262 337 q 252 405 271 370 q 236 468 233 439 q 257 607 246 535 q 278 749 268 678 q 279 827 289 806 q 247 848 268 848 q 211 846 225 848 q 183 841 196 845 q 154 830 169 837 q 115 814 139 824 l 144 932 l 329 932 q 381 923 354 932 q 427 895 407 913 q 457 848 447 876 q 463 782 468 821 l 413 460 q 426 416 413 441 q 482 391 439 391 l 471 307 q 433 299 449 307 q 405 280 417 291 q 388 258 394 270 q 380 236 382 246 l 330 -86 q 307 -152 326 -125 q 263 -199 287 -180 q 208 -226 238 -217 q 152 -235 179 -235 l -30 -235 l -21 -120 q 41 -144 16 -139 q 94 -148 65 -148 q 134 -125 120 -148 q 156 -62 148 -101 l 203 254 z "},"~":{"ha":575,"x_min":35,"x_max":608,"o":"m 423 351 q 339 366 378 351 q 271 393 300 380 q 230 410 249 402 q 200 418 211 418 q 172 403 187 418 q 148 351 158 388 l 35 351 q 105 476 53 436 q 217 516 156 516 q 311 501 268 516 q 380 474 353 487 q 417 458 398 466 q 444 450 436 450 q 469 465 455 450 q 495 516 484 481 l 608 516 q 538 391 587 431 q 423 351 489 351 z "},"":{"ha":335,"x_min":-53,"x_max":303,"o":"m 152 -295 l -53 -295 l -26 -150 l 97 394 l 209 394 l 171 -152 l 152 -295 m 295 546 q 251 479 289 501 q 163 463 212 457 q 87 501 117 471 q 64 573 57 532 q 109 639 72 618 q 196 653 147 659 q 274 616 244 645 q 295 546 303 587 z "},"":{"ha":591,"x_min":45,"x_max":624,"o":"m 233 318 q 228 263 228 289 q 263 136 228 184 q 362 89 297 89 q 461 127 404 89 q 578 236 519 164 l 544 48 q 508 28 532 38 q 453 9 484 18 q 386 -5 421 0 q 314 -10 350 -10 q 206 7 255 -10 q 121 57 156 24 q 65 140 85 91 q 45 251 45 188 q 49 321 45 284 q 98 464 62 401 q 186 571 134 527 q 300 638 238 615 q 426 661 362 661 q 482 657 453 661 q 538 647 511 653 q 587 634 565 642 q 624 619 610 626 l 600 442 q 525 521 570 485 q 436 557 481 557 q 303 492 359 557 q 233 318 247 428 m 415 793 l 546 793 l 329 -134 l 198 -134 l 415 793 z "},"":{"ha":674,"x_min":29,"x_max":717,"o":"m 83 482 l 168 482 q 149 545 156 512 q 142 616 142 578 q 147 675 142 647 q 187 782 156 733 q 261 868 217 832 q 362 924 305 904 q 481 945 418 945 q 628 927 572 945 q 717 888 685 908 l 694 739 l 686 739 q 662 776 680 758 q 617 806 643 793 q 560 827 591 819 q 500 835 528 835 q 388 789 428 835 q 337 675 348 742 q 332 619 332 643 q 338 548 332 583 q 353 482 345 514 l 564 482 l 552 382 l 370 382 q 372 347 372 364 q 369 313 372 330 q 358 267 364 289 q 342 223 353 246 q 314 174 332 200 q 267 117 295 148 l 444 117 q 618 182 567 117 l 624 179 l 583 0 l 29 0 l 43 78 q 193 308 179 190 q 195 382 200 345 l 69 382 l 83 482 z "},"":{"ha":832,"x_min":99,"x_max":939,"o":"m 318 450 l 176 813 l 176 811 q 133 888 155 857 q 99 932 110 920 l 407 932 q 392 909 404 929 q 380 859 380 889 q 382 836 380 846 q 386 816 383 825 l 386 817 l 496 548 l 674 817 q 694 857 688 838 q 699 892 699 876 q 696 917 699 907 q 691 932 693 928 l 939 932 q 924 920 936 929 q 896 896 913 912 q 860 858 880 880 q 822 811 841 837 l 824 811 q 702 631 763 718 q 581 450 642 543 l 723 450 l 710 350 l 525 350 l 514 294 l 701 294 l 683 195 l 501 195 l 493 145 q 489 101 489 118 q 502 29 489 54 q 519 0 516 3 l 247 0 q 256 11 247 0 q 276 42 265 22 q 299 89 287 62 q 316 150 310 117 q 320 172 318 163 q 324 195 322 182 l 126 195 l 142 294 l 338 294 q 342 322 342 308 q 345 350 342 335 l 153 350 l 166 450 l 318 450 z "},"":{"ha":287,"x_min":5,"x_max":335,"o":"m 5 -236 l 88 314 l 236 314 l 155 -236 l 5 -236 m 252 413 l 102 413 l 185 963 l 335 963 l 252 413 z "},"":{"ha":643,"x_min":30,"x_max":658,"o":"m 343 78 q 316 136 348 109 q 243 192 284 163 q 168 240 206 214 q 101 298 131 267 q 54 365 70 329 q 45 444 38 401 q 101 540 54 501 q 212 600 147 578 q 166 669 182 632 q 156 747 150 706 q 193 830 164 793 q 264 892 222 867 q 358 929 307 916 q 463 942 410 942 q 564 928 519 942 q 635 899 608 915 l 599 747 q 532 819 573 785 q 453 852 492 852 q 382 826 415 852 q 342 766 348 800 q 370 710 337 734 q 447 659 402 686 q 523 612 484 637 q 592 557 562 587 q 640 491 623 527 q 651 410 658 455 q 593 309 642 350 q 477 246 544 268 q 520 178 509 214 q 527 97 532 142 q 489 13 519 49 q 416 -49 460 -24 q 319 -88 372 -75 q 214 -101 267 -101 q 108 -87 158 -101 q 30 -59 57 -73 l 61 120 q 97 72 77 96 q 139 30 117 48 q 184 0 161 11 q 230 -11 208 -11 q 304 15 271 -11 q 343 78 337 42 m 484 383 q 474 417 485 401 q 444 449 463 434 q 399 480 425 465 q 348 509 374 495 l 287 544 q 239 528 262 549 q 214 477 217 506 q 253 408 211 442 q 351 340 295 374 q 378 323 364 332 q 404 307 391 314 l 401 307 q 427 307 413 302 q 453 325 441 313 q 473 352 465 337 q 484 383 481 367 z "},"":{"ha":560,"x_min":109,"x_max":568,"o":"m 115 837 q 157 905 123 880 q 235 931 192 931 q 303 904 276 931 q 322 833 329 878 q 283 765 316 790 q 208 741 249 741 q 136 766 163 741 q 115 837 109 792 m 356 837 q 398 905 364 880 q 474 931 431 931 q 542 904 516 931 q 562 833 568 878 q 522 765 556 790 q 447 741 489 741 q 376 766 402 741 q 356 837 350 792 z "},"":{"ha":982,"x_min":57,"x_max":991,"o":"m 62 463 q 130 667 80 578 q 253 818 180 757 q 414 912 326 880 q 595 945 503 945 q 754 920 682 945 q 880 845 827 894 q 962 722 932 795 q 991 557 991 650 q 989 509 991 533 q 983 460 987 485 q 917 265 966 351 q 797 117 868 179 q 636 23 725 56 q 452 -10 548 -10 q 295 17 367 -10 q 171 93 223 43 q 88 215 118 144 q 57 375 57 286 q 62 463 57 417 m 206 460 q 201 386 201 418 q 220 261 201 318 q 272 164 238 204 q 356 102 307 125 q 466 80 405 80 q 597 108 535 80 q 708 186 659 136 q 791 307 757 236 q 838 463 825 378 q 844 508 841 485 q 846 551 846 530 q 776 771 846 691 q 584 851 706 851 q 452 824 514 851 q 339 746 390 797 q 255 623 289 694 q 206 460 220 551 m 421 463 q 417 410 417 434 q 445 299 417 338 q 520 260 474 260 q 559 264 536 260 q 603 276 581 268 q 643 296 624 284 q 674 324 663 308 l 690 319 l 672 219 q 498 174 600 174 q 407 190 450 174 q 333 236 364 206 q 283 311 302 267 q 265 409 265 354 q 270 466 265 439 q 313 590 281 535 q 390 683 345 645 q 486 742 434 722 q 589 763 538 763 q 683 751 645 763 q 746 723 722 739 l 728 618 l 715 618 q 667 659 706 643 q 586 675 627 675 q 482 621 525 675 q 421 463 439 567 z "},"":{"ha":482,"x_min":59,"x_max":509,"o":"m 356 797 q 347 856 359 833 q 305 878 335 878 q 223 854 265 878 q 142 798 182 830 l 160 923 q 194 934 174 928 q 236 946 214 940 q 282 955 259 951 q 326 958 305 958 q 459 919 409 958 q 496 784 509 880 l 461 556 q 461 495 453 514 q 471 471 468 476 l 310 471 l 310 485 q 264 471 289 477 q 211 465 239 465 q 100 502 140 465 q 67 600 59 540 q 101 675 73 643 q 167 729 128 707 q 254 761 206 750 q 353 776 302 773 l 356 797 m 211 607 q 220 560 206 575 q 255 546 233 546 q 294 555 275 546 q 327 578 313 564 l 321 575 l 340 704 q 257 676 297 699 q 211 607 217 653 z "},"":{"ha":816,"x_min":69,"x_max":843,"o":"m 512 723 l 493 592 l 255 423 l 444 254 l 421 121 l 69 391 l 80 457 l 512 723 m 843 723 l 824 592 l 586 423 l 773 254 l 750 121 l 399 391 l 410 457 l 843 723 z "},"":{"ha":714,"x_min":94,"x_max":694,"o":"m 110 496 l 694 496 l 651 192 l 503 192 l 532 382 l 94 382 l 110 496 z "},"":{"ha":564,"x_min":78,"x_max":535,"o":"m 96 402 l 535 402 l 516 287 l 78 287 l 96 402 z "},"":{"ha":982,"x_min":57,"x_max":991,"o":"m 62 463 q 130 667 80 578 q 253 818 180 757 q 414 912 326 880 q 595 945 503 945 q 754 920 682 945 q 880 845 827 894 q 962 722 932 795 q 991 557 991 650 q 989 509 991 533 q 983 460 987 485 q 917 265 966 351 q 797 117 868 179 q 636 23 725 56 q 452 -10 548 -10 q 295 17 367 -10 q 171 93 223 43 q 88 215 118 144 q 57 375 57 286 q 62 463 57 417 m 206 460 q 201 386 201 418 q 220 261 201 318 q 272 164 238 204 q 356 102 307 125 q 466 80 405 80 q 597 108 535 80 q 708 186 659 136 q 791 307 757 236 q 838 463 825 378 q 844 508 841 485 q 846 551 846 530 q 776 771 846 691 q 584 851 706 851 q 452 824 514 851 q 339 746 390 797 q 255 623 289 694 q 206 460 220 551 m 528 180 q 514 268 532 214 q 466 394 496 322 l 447 271 l 447 273 q 444 213 444 235 q 445 180 444 192 l 294 180 q 312 320 302 246 q 334 470 322 394 q 357 619 345 546 q 380 758 369 693 l 522 758 q 674 715 618 758 q 718 580 731 672 q 683 489 710 530 q 613 429 656 447 q 655 304 631 374 q 691 180 678 235 l 528 180 m 506 672 q 492 583 498 629 q 481 493 487 536 q 516 504 501 495 q 540 525 530 512 q 555 553 549 538 q 564 583 560 568 q 560 644 570 616 q 511 672 549 672 l 506 672 z "},"":{"ha":506,"x_min":73,"x_max":536,"o":"m 81 730 q 113 826 88 784 q 172 898 137 868 q 249 943 206 928 q 338 958 292 958 q 421 942 383 958 q 486 896 460 926 q 524 824 512 867 q 528 726 536 781 q 496 637 520 677 q 437 569 473 597 q 359 526 402 541 q 271 511 316 511 q 188 526 225 511 q 124 570 150 541 q 85 639 97 599 q 81 730 73 678 m 220 726 q 227 634 211 672 q 283 595 244 595 q 350 636 321 595 q 390 730 378 677 q 381 829 398 787 q 327 870 364 870 q 258 829 287 870 q 220 726 228 787 z "},"":{"ha":725,"x_min":32,"x_max":733,"o":"m 536 792 l 498 548 l 733 548 l 714 431 l 479 431 l 444 187 l 295 187 l 332 431 l 96 431 l 115 548 l 351 548 q 370 669 361 607 q 388 792 378 731 l 536 792 m 667 115 l 651 0 l 32 0 l 48 115 l 667 115 z "},"":{"ha":377,"x_min":42,"x_max":417,"o":"m 409 819 q 396 783 405 801 q 362 734 386 765 q 295 657 338 704 q 184 533 252 610 l 273 533 q 312 541 300 533 q 337 564 324 549 l 375 560 l 353 469 l 42 469 l 49 517 q 101 577 73 546 q 152 632 129 608 q 247 741 208 693 q 291 825 286 789 q 283 866 294 848 q 243 884 273 884 q 195 872 217 884 q 161 838 172 859 l 118 843 l 129 913 q 184 936 152 926 q 268 945 217 945 q 377 910 337 945 q 409 819 417 875 z "},"":{"ha":377,"x_min":56,"x_max":418,"o":"m 377 600 q 354 543 372 568 q 311 499 337 517 q 254 470 286 481 q 188 460 222 460 q 108 470 140 460 q 56 493 75 481 l 69 568 l 110 568 q 135 536 117 551 q 180 522 153 522 q 230 545 209 522 q 255 600 251 568 q 250 655 262 631 q 193 682 238 678 l 134 682 l 142 741 l 201 741 q 267 767 247 742 q 291 824 286 792 q 283 864 294 846 q 243 883 273 883 q 193 870 216 883 q 158 837 171 857 l 117 840 l 128 913 q 184 936 152 926 q 268 945 217 945 q 378 909 337 945 q 410 817 418 873 q 383 761 405 793 q 313 710 361 730 q 366 657 351 691 q 377 600 380 623 z "},"":{"ha":362,"x_min":174,"x_max":532,"o":"m 532 921 q 500 863 527 892 q 437 807 473 833 q 366 759 402 781 q 307 726 329 738 l 174 726 q 221 767 195 741 q 271 823 247 793 q 314 881 295 852 q 335 929 332 910 l 433 929 q 500 928 469 929 q 532 923 532 926 l 532 921 z "},"":{"ha":720,"x_min":5,"x_max":747,"o":"m 148 536 l 148 535 q 151 586 152 565 q 146 621 150 607 q 139 643 142 635 q 134 651 136 650 l 361 651 l 370 640 q 351 615 367 639 q 326 533 335 592 l 278 225 q 283 139 270 174 q 324 104 297 104 q 476 166 394 104 l 466 163 l 524 536 q 521 619 530 591 q 511 651 512 648 l 747 651 q 727 619 744 648 q 701 533 710 591 q 670 323 686 428 q 637 115 653 219 q 639 30 629 56 q 653 0 650 3 l 449 0 q 449 22 449 6 q 450 48 449 37 q 362 7 409 22 q 273 -8 314 -8 q 259 -10 260 -8 q 246 -8 257 -11 q 235 -79 239 -43 q 223 -150 230 -115 q 224 -227 217 -201 q 236 -265 231 -254 l 14 -265 l 5 -254 q 24 -229 8 -252 q 48 -147 40 -206 l 148 536 z "},"":{"ha":741,"x_min":89,"x_max":814,"o":"m 607 845 l 444 -228 l 318 -228 l 407 359 l 382 359 q 163 415 236 359 q 89 580 89 471 q 94 639 89 611 q 214 862 121 792 q 466 932 307 932 l 814 932 l 639 -228 l 514 -228 l 677 845 l 607 845 z "},"":{"ha":305,"x_min":81,"x_max":300,"o":"m 88 477 q 129 546 94 520 q 204 572 163 572 q 273 544 246 572 q 294 474 300 516 q 253 407 287 433 q 177 382 219 382 q 108 407 134 382 q 88 477 81 433 z "},"":{"ha":375,"x_min":3,"x_max":332,"o":"m 166 11 q 180 13 164 11 q 212 18 195 14 l 260 24 q 241 -8 249 8 q 225 -35 233 -21 q 212 -59 217 -49 q 254 -67 231 -61 q 294 -88 276 -73 q 322 -126 311 -102 q 329 -187 332 -150 q 266 -297 314 -255 q 166 -361 217 -338 q 32 -399 104 -388 l 3 -345 q 81 -322 46 -340 q 139 -283 112 -308 q 174 -211 166 -257 q 159 -155 180 -168 q 115 -142 137 -142 q 93 -144 107 -142 q 67 -148 80 -145 q 37 -155 51 -152 q 93 -72 67 -109 q 136 -14 115 -40 q 166 11 156 11 z "},"":{"ha":375,"x_min":160,"x_max":345,"o":"m 166 860 l 292 932 l 324 932 l 335 920 q 332 856 345 924 l 286 544 q 289 490 279 509 q 300 469 299 471 l 166 476 q 168 493 168 476 q 174 548 168 511 l 212 803 l 212 801 q 216 828 216 824 q 214 832 216 832 l 160 821 l 166 860 z "},"":{"ha":540,"x_min":72,"x_max":567,"o":"m 80 706 q 114 812 88 765 q 179 892 140 859 q 264 941 217 924 q 361 958 311 958 q 508 904 450 958 q 567 752 567 851 q 566 727 567 739 q 564 702 565 715 q 528 602 554 647 q 464 526 501 557 q 380 478 426 495 q 286 461 334 461 q 195 478 236 461 q 125 527 153 495 q 85 603 97 559 q 80 706 72 648 m 227 702 q 222 655 222 675 q 240 569 222 600 q 294 538 259 538 q 370 583 337 538 q 415 706 402 629 q 418 730 418 718 q 418 754 418 741 q 400 845 418 813 q 348 878 382 878 q 271 831 303 878 q 227 702 238 784 z "},"":{"ha":816,"x_min":29,"x_max":803,"o":"m 803 457 l 792 391 l 359 123 l 380 254 l 619 423 l 429 592 l 450 723 l 803 457 m 473 457 l 461 391 l 29 123 l 49 254 l 289 423 l 101 592 l 121 723 l 473 457 z "},"":{"ha":862,"x_min":-19,"x_max":886,"o":"m 125 0 l -19 0 q -4 18 -13 6 q 31 61 5 30 q 105 152 57 93 q 235 312 153 211 q 440 564 318 413 q 738 932 562 715 l 886 932 l 125 0 m 803 126 l 741 126 l 733 73 q 738 22 730 43 q 749 0 747 2 l 613 0 l 613 13 q 615 29 613 19 q 617 49 616 37 q 621 77 618 61 l 629 126 l 452 126 l 457 174 l 696 463 l 800 463 q 791 441 797 460 q 781 386 785 421 l 750 193 q 789 198 773 193 q 814 211 806 203 l 821 208 l 803 126 m 153 860 l 279 932 l 319 932 l 329 921 q 318 856 327 920 l 271 544 q 277 492 268 512 q 287 469 286 471 l 152 469 l 152 482 q 153 498 152 489 q 155 518 155 506 q 158 548 155 530 l 198 803 q 202 827 201 822 q 201 832 203 832 l 147 821 l 153 860 m 567 192 q 599 191 580 192 q 637 190 618 190 l 653 295 q 604 234 629 263 q 567 192 580 204 z "},"":{"ha":862,"x_min":-19,"x_max":886,"o":"m 125 0 l -19 0 q -4 18 -13 6 q 31 61 5 30 q 105 152 57 93 q 235 312 153 211 q 440 564 318 413 q 738 932 562 715 l 886 932 l 125 0 m 835 350 q 822 314 832 332 q 789 267 813 297 q 722 188 765 236 q 608 65 678 140 l 699 65 q 739 73 726 65 q 765 94 752 80 l 803 91 l 779 0 l 465 0 l 474 49 q 531 111 501 78 q 583 171 560 144 q 670 272 631 222 q 717 356 709 322 q 709 396 720 377 q 669 415 698 415 q 619 402 642 415 q 584 369 597 388 l 544 372 l 557 442 q 613 466 580 455 q 693 477 647 477 q 803 441 763 477 q 835 350 843 405 m 153 860 l 279 932 l 319 932 l 329 921 q 318 856 327 920 l 271 544 q 277 492 268 512 q 287 469 286 471 l 152 469 l 152 482 q 153 498 152 489 q 155 518 155 506 q 158 548 155 530 l 198 803 q 202 827 201 822 q 201 832 203 832 l 147 821 l 153 860 z "},"":{"ha":862,"x_min":11,"x_max":915,"o":"m 155 0 l 11 0 q 29 20 18 6 q 69 69 40 34 q 152 173 97 105 q 303 358 208 241 q 496 599 383 457 q 765 932 610 742 l 915 932 l 155 0 m 394 600 q 373 543 390 568 q 330 499 356 517 q 272 470 305 481 q 206 460 239 460 q 127 469 158 460 q 75 492 96 479 l 88 568 l 129 568 q 155 536 137 551 q 198 522 172 522 q 249 544 228 522 q 276 599 270 567 q 267 653 279 627 q 211 682 255 678 l 155 682 l 161 741 l 220 741 q 286 767 267 742 q 310 824 305 792 q 302 864 313 846 q 262 883 291 883 q 210 869 233 883 q 174 837 187 856 l 134 840 l 148 910 q 205 934 171 923 q 286 945 239 945 q 394 908 353 945 q 428 817 434 870 q 400 761 425 793 q 330 710 375 730 q 386 659 372 693 q 394 600 399 624 m 803 126 l 741 126 l 733 73 q 738 22 730 43 q 749 0 747 2 l 613 0 l 613 13 q 615 29 613 19 q 617 49 616 37 q 621 77 618 61 l 629 126 l 452 126 l 457 174 l 696 463 l 800 463 q 791 441 797 460 q 781 386 785 421 l 750 193 q 789 198 773 193 q 814 211 806 203 l 821 208 l 803 126 m 567 192 q 599 191 580 192 q 637 190 618 190 l 653 295 q 604 234 629 263 q 567 192 580 204 z "},"":{"ha":592,"x_min":65,"x_max":605,"o":"m 522 350 q 498 269 516 307 q 458 200 481 231 q 409 141 436 168 q 358 91 383 115 q 293 16 324 57 q 260 -73 262 -26 q 276 -151 257 -117 q 348 -185 295 -185 q 402 -178 374 -185 q 454 -158 429 -171 q 499 -128 479 -145 q 530 -89 519 -110 l 573 -94 l 549 -239 q 439 -279 496 -262 q 316 -295 382 -295 q 133 -233 200 -295 q 69 -64 65 -171 q 86 7 70 -26 q 126 68 102 40 q 180 121 150 96 q 241 169 211 145 q 328 249 287 206 q 378 351 369 292 l 386 401 l 532 401 l 522 350 m 597 552 q 552 485 591 508 q 465 469 514 463 q 389 508 418 477 q 366 580 359 538 q 411 645 374 624 q 498 659 449 666 q 576 623 546 651 q 597 552 605 594 z "},"":{"ha":920,"x_min":-10,"x_max":888,"o":"m 594 275 l 305 275 l 243 145 q 227 103 231 123 q 223 69 223 83 q 235 22 223 38 q 254 0 246 6 l -10 0 q 4 12 -8 2 q 33 42 16 22 q 69 88 49 61 q 109 152 89 115 l 107 152 l 417 785 q 430 821 425 800 q 436 864 436 841 q 429 898 436 883 q 404 926 421 913 l 647 926 q 668 841 655 894 q 702 698 682 787 q 751 475 723 608 q 817 150 779 342 q 836 88 824 115 q 858 42 848 61 q 877 12 868 22 q 888 0 886 2 l 573 2 q 584 10 576 3 q 600 30 592 18 q 615 60 608 42 q 621 102 621 78 q 616 147 621 120 l 594 275 m 359 385 l 573 385 q 542 538 557 466 q 509 694 527 610 l 359 385 m 302 1207 q 335 1212 305 1210 q 402 1213 366 1213 l 498 1213 q 504 1165 495 1194 q 529 1108 514 1137 q 564 1053 544 1079 q 597 1011 583 1027 l 465 1011 q 418 1043 447 1022 q 362 1092 390 1065 q 315 1149 334 1119 q 302 1208 297 1180 l 302 1207 z "},"":{"ha":920,"x_min":-10,"x_max":888,"o":"m 594 275 l 305 275 l 243 145 q 227 103 231 123 q 223 69 223 83 q 235 22 223 38 q 254 0 246 6 l -10 0 q 4 12 -8 2 q 33 42 16 22 q 69 88 49 61 q 109 152 89 115 l 107 152 l 417 785 q 430 821 425 800 q 436 864 436 841 q 429 898 436 883 q 404 926 421 913 l 647 926 q 668 841 655 894 q 702 698 682 787 q 751 475 723 608 q 817 150 779 342 q 836 88 824 115 q 858 42 848 61 q 877 12 868 22 q 888 0 886 2 l 573 2 q 584 10 576 3 q 600 30 592 18 q 615 60 608 42 q 621 102 621 78 q 616 147 621 120 l 594 275 m 359 385 l 573 385 q 542 538 557 466 q 509 694 527 610 l 359 385 m 805 1205 q 773 1147 800 1177 q 710 1091 746 1117 q 639 1043 675 1065 q 580 1011 602 1022 l 447 1011 q 494 1051 468 1025 q 544 1107 520 1078 q 587 1165 568 1137 q 608 1213 605 1194 l 706 1213 q 773 1212 742 1213 q 805 1207 805 1210 l 805 1205 z "},"":{"ha":920,"x_min":-10,"x_max":888,"o":"m 594 275 l 305 275 l 243 145 q 227 103 231 123 q 223 69 223 83 q 235 22 223 38 q 254 0 246 6 l -10 0 q 4 12 -8 2 q 33 42 16 22 q 69 88 49 61 q 109 152 89 115 l 107 152 l 417 785 q 430 821 425 800 q 436 864 436 841 q 429 898 436 883 q 404 926 421 913 l 647 926 q 668 841 655 894 q 702 698 682 787 q 751 475 723 608 q 817 150 779 342 q 836 88 824 115 q 858 42 848 61 q 877 12 868 22 q 888 0 886 2 l 573 2 q 584 10 576 3 q 600 30 592 18 q 615 60 608 42 q 621 102 621 78 q 616 147 621 120 l 594 275 m 359 385 l 573 385 q 542 538 557 466 q 509 694 527 610 l 359 385 m 594 1213 l 639 1151 q 709 1059 670 1110 q 777 979 747 1009 l 643 979 q 595 1020 619 999 q 544 1066 570 1041 q 473 1015 508 1039 q 417 979 439 991 l 286 979 q 370 1055 318 1006 q 474 1154 423 1105 q 504 1185 490 1169 q 532 1213 519 1201 l 594 1213 z "},"":{"ha":920,"x_min":-10,"x_max":888,"o":"m 594 275 l 305 275 l 243 145 q 227 103 231 123 q 223 69 223 83 q 235 22 223 38 q 254 0 246 6 l -10 0 q 4 12 -8 2 q 33 42 16 22 q 69 88 49 61 q 109 152 89 115 l 107 152 l 417 785 q 430 821 425 800 q 436 864 436 841 q 429 898 436 883 q 404 926 421 913 l 647 926 q 668 841 655 894 q 702 698 682 787 q 751 475 723 608 q 817 150 779 342 q 836 88 824 115 q 858 42 848 61 q 877 12 868 22 q 888 0 886 2 l 573 2 q 584 10 576 3 q 600 30 592 18 q 615 60 608 42 q 621 102 621 78 q 616 147 621 120 l 594 275 m 359 385 l 573 385 q 542 538 557 466 q 509 694 527 610 l 359 385 m 632 995 q 569 1005 597 995 q 519 1027 541 1015 q 479 1050 496 1039 q 449 1060 461 1060 q 424 1046 436 1060 q 401 995 412 1031 l 305 995 q 375 1118 324 1079 q 487 1157 426 1157 q 530 1148 506 1157 q 578 1127 554 1138 q 625 1106 602 1116 q 666 1097 648 1097 q 722 1157 701 1097 l 819 1157 q 748 1034 798 1074 q 632 995 698 995 z "},"":{"ha":920,"x_min":-10,"x_max":888,"o":"m 594 275 l 305 275 l 243 145 q 227 103 231 123 q 223 69 223 83 q 235 22 223 38 q 254 0 246 6 l -10 0 q 4 12 -8 2 q 33 42 16 22 q 69 88 49 61 q 109 152 89 115 l 107 152 l 417 785 q 430 821 425 800 q 436 864 436 841 q 429 898 436 883 q 404 926 421 913 l 647 926 q 668 841 655 894 q 702 698 682 787 q 751 475 723 608 q 817 150 779 342 q 836 88 824 115 q 858 42 848 61 q 877 12 868 22 q 888 0 886 2 l 573 2 q 584 10 576 3 q 600 30 592 18 q 615 60 608 42 q 621 102 621 78 q 616 147 621 120 l 594 275 m 359 385 l 573 385 q 542 538 557 466 q 509 694 527 610 l 359 385 m 324 1105 q 366 1173 332 1148 q 444 1199 401 1199 q 512 1173 485 1199 q 532 1102 538 1146 q 492 1034 525 1058 q 417 1009 458 1009 q 345 1034 372 1009 q 324 1105 318 1060 m 565 1105 q 607 1173 573 1148 q 683 1199 640 1199 q 751 1173 725 1199 q 771 1102 777 1146 q 731 1034 765 1058 q 656 1009 698 1009 q 585 1034 611 1009 q 565 1105 559 1060 z "},"":{"ha":920,"x_min":-10,"x_max":888,"o":"m 594 275 l 305 275 l 243 145 q 227 103 231 123 q 223 69 223 83 q 235 22 223 38 q 254 0 246 6 l -10 0 q 4 12 -8 2 q 33 42 16 22 q 69 88 49 61 q 109 152 89 115 l 107 152 l 417 785 q 430 821 425 800 q 436 864 436 841 q 429 898 436 883 q 404 926 421 913 l 647 926 q 668 841 655 894 q 702 698 682 787 q 751 475 723 608 q 817 150 779 342 q 836 88 824 115 q 858 42 848 61 q 877 12 868 22 q 888 0 886 2 l 573 2 q 584 10 576 3 q 600 30 592 18 q 615 60 608 42 q 621 102 621 78 q 616 147 621 120 l 594 275 m 359 385 l 573 385 q 542 538 557 466 q 509 694 527 610 l 359 385 m 396 1102 q 414 1148 401 1125 q 449 1187 428 1170 q 496 1213 471 1204 q 551 1223 522 1223 q 642 1186 607 1223 q 669 1098 677 1149 q 651 1050 666 1073 q 616 1012 637 1028 q 569 987 595 996 q 514 977 543 977 q 424 1013 458 977 q 396 1100 390 1049 l 396 1102 m 496 1100 q 502 1061 493 1078 q 524 1044 511 1044 q 552 1062 538 1044 q 568 1102 565 1079 q 564 1139 572 1124 q 541 1154 556 1154 q 514 1137 527 1154 q 496 1098 501 1121 l 496 1100 z "},"":{"ha":1054,"x_min":-21,"x_max":1141,"o":"m 998 0 l 481 0 q 489 11 481 0 q 508 42 498 22 q 530 89 519 62 q 548 150 541 117 q 561 235 554 193 q 575 324 568 278 l 361 324 l 246 145 q 220 92 225 115 q 214 51 214 69 q 221 18 214 30 q 235 0 228 6 l -10 0 l -21 10 q 26 49 -14 13 q 112 152 67 85 l 524 785 q 547 829 536 803 q 557 880 557 854 q 552 908 557 894 q 533 932 546 921 l 1141 932 l 1121 760 l 1111 758 q 1076 801 1102 785 q 995 816 1050 816 l 827 816 l 784 536 l 967 536 q 1034 547 1015 536 q 1076 575 1054 557 l 1044 369 q 1011 412 1036 399 q 953 425 985 425 l 766 425 l 722 117 l 888 117 q 975 133 947 117 q 1028 182 1003 150 l 1033 179 l 998 0 m 639 755 l 431 434 l 591 434 l 639 755 z "},"":{"ha":787,"x_min":57,"x_max":852,"o":"m 267 461 q 264 435 265 449 q 263 409 263 421 q 283 282 263 338 q 334 184 302 225 q 410 120 367 142 q 501 97 453 97 q 568 106 532 97 q 640 130 605 115 q 706 167 675 145 q 757 216 738 188 l 755 200 l 733 57 q 615 8 677 26 q 469 -10 552 -10 q 312 19 386 -10 q 181 102 238 48 q 91 232 125 156 q 57 404 57 308 q 58 433 57 418 q 61 461 59 447 q 121 667 72 576 q 240 818 169 757 q 398 912 311 880 q 570 945 484 945 q 740 927 664 945 q 852 888 816 908 l 822 696 q 781 750 808 725 q 722 794 755 776 q 652 824 690 813 q 576 835 615 835 q 467 809 519 835 q 374 734 415 782 q 304 615 332 685 q 267 461 276 546 m 445 11 q 459 13 444 11 q 492 18 474 14 l 540 24 q 520 -8 528 8 q 504 -35 512 -21 q 492 -59 496 -49 q 533 -67 511 -61 q 573 -88 556 -73 q 601 -126 591 -102 q 608 -187 611 -150 q 545 -297 594 -255 q 445 -361 496 -338 q 311 -399 383 -388 l 283 -345 q 361 -322 326 -340 q 418 -283 391 -308 q 453 -211 445 -257 q 438 -155 460 -168 q 394 -142 417 -142 q 373 -144 386 -142 q 346 -148 359 -145 q 316 -155 330 -152 q 372 -72 346 -109 q 415 -14 394 -40 q 445 11 436 11 z "},"":{"ha":627,"x_min":11,"x_max":699,"o":"m 556 0 l 21 0 l 11 11 q 39 47 14 13 q 75 150 64 81 l 171 785 q 176 832 176 811 q 160 906 176 881 q 144 932 145 931 l 699 932 l 680 760 l 675 758 q 639 801 664 785 q 557 816 613 816 l 356 816 q 334 676 345 744 q 311 536 322 608 l 481 536 q 523 542 501 536 q 562 556 544 548 q 592 571 580 564 q 608 581 605 578 l 584 374 q 568 387 580 378 q 539 405 556 396 q 503 419 522 413 q 465 425 484 425 l 295 425 l 249 117 l 449 117 q 538 133 509 117 q 591 182 567 150 l 594 179 l 556 0 m 246 1207 q 279 1212 249 1210 q 346 1213 310 1213 l 442 1213 q 449 1165 439 1194 q 473 1108 458 1137 q 508 1053 489 1079 q 541 1011 527 1027 l 409 1011 q 362 1043 391 1022 q 306 1092 334 1065 q 259 1149 278 1119 q 246 1208 241 1180 l 246 1207 z "},"":{"ha":627,"x_min":11,"x_max":699,"o":"m 556 0 l 21 0 l 11 11 q 39 47 14 13 q 75 150 64 81 l 171 785 q 176 832 176 811 q 160 906 176 881 q 144 932 145 931 l 699 932 l 680 760 l 675 758 q 639 801 664 785 q 557 816 613 816 l 356 816 q 334 676 345 744 q 311 536 322 608 l 481 536 q 523 542 501 536 q 562 556 544 548 q 592 571 580 564 q 608 581 605 578 l 584 374 q 568 387 580 378 q 539 405 556 396 q 503 419 522 413 q 465 425 484 425 l 295 425 l 249 117 l 449 117 q 538 133 509 117 q 591 182 567 150 l 594 179 l 556 0 m 674 1205 q 642 1147 669 1177 q 580 1091 615 1117 q 508 1043 544 1065 q 449 1011 471 1022 l 316 1011 q 363 1051 337 1025 q 413 1107 390 1078 q 456 1165 437 1137 q 477 1213 474 1194 l 575 1213 q 643 1212 611 1213 q 674 1207 674 1210 l 674 1205 z "},"":{"ha":627,"x_min":11,"x_max":699,"o":"m 556 0 l 21 0 l 11 11 q 39 47 14 13 q 75 150 64 81 l 171 785 q 176 832 176 811 q 160 906 176 881 q 144 932 145 931 l 699 932 l 680 760 l 675 758 q 639 801 664 785 q 557 816 613 816 l 356 816 q 334 676 345 744 q 311 536 322 608 l 481 536 q 523 542 501 536 q 562 556 544 548 q 592 571 580 564 q 608 581 605 578 l 584 374 q 568 387 580 378 q 539 405 556 396 q 503 419 522 413 q 465 425 484 425 l 295 425 l 249 117 l 449 117 q 538 133 509 117 q 591 182 567 150 l 594 179 l 556 0 m 465 1229 l 509 1167 q 580 1075 541 1125 q 648 995 618 1025 l 514 995 q 465 1036 490 1015 q 415 1082 441 1057 q 344 1031 378 1055 q 287 995 310 1007 l 156 995 q 241 1071 188 1022 q 345 1170 294 1121 q 375 1201 361 1185 q 402 1229 390 1216 l 465 1229 z "},"":{"ha":627,"x_min":11,"x_max":699,"o":"m 556 0 l 21 0 l 11 11 q 39 47 14 13 q 75 150 64 81 l 171 785 q 176 832 176 811 q 160 906 176 881 q 144 932 145 931 l 699 932 l 680 760 l 675 758 q 639 801 664 785 q 557 816 613 816 l 356 816 q 334 676 345 744 q 311 536 322 608 l 481 536 q 523 542 501 536 q 562 556 544 548 q 592 571 580 564 q 608 581 605 578 l 584 374 q 568 387 580 378 q 539 405 556 396 q 503 419 522 413 q 465 425 484 425 l 295 425 l 249 117 l 449 117 q 538 133 509 117 q 591 182 567 150 l 594 179 l 556 0 m 209 1105 q 251 1173 217 1148 q 329 1199 286 1199 q 397 1173 370 1199 q 417 1102 423 1146 q 377 1034 410 1058 q 302 1009 343 1009 q 230 1034 257 1009 q 209 1105 203 1060 m 450 1105 q 492 1173 458 1148 q 568 1199 525 1199 q 636 1173 610 1199 q 656 1102 663 1146 q 616 1034 650 1058 q 541 1009 583 1009 q 470 1034 496 1009 q 450 1105 444 1060 z "},"":{"ha":337,"x_min":11,"x_max":415,"o":"m 252 147 q 249 123 249 134 q 249 102 249 112 q 262 30 249 56 q 278 0 275 3 l 21 0 l 11 11 q 38 47 14 13 q 73 150 62 81 l 171 785 q 173 848 176 821 q 165 892 171 875 q 154 920 160 910 q 147 932 148 931 l 415 932 q 405 920 413 931 q 386 891 396 910 q 365 845 375 872 q 348 782 354 817 l 252 147 m 53 1191 q 86 1196 56 1194 q 153 1197 117 1197 l 249 1197 q 255 1149 246 1178 q 280 1092 265 1121 q 314 1037 295 1063 q 348 995 334 1011 l 216 995 q 169 1027 198 1006 q 113 1076 140 1049 q 66 1133 85 1103 q 53 1193 48 1164 l 53 1191 z "},"":{"ha":337,"x_min":11,"x_max":524,"o":"m 252 147 q 249 123 249 134 q 249 102 249 112 q 262 30 249 56 q 278 0 275 3 l 21 0 l 11 11 q 38 47 14 13 q 73 150 62 81 l 171 785 q 173 848 176 821 q 165 892 171 875 q 154 920 160 910 q 147 932 148 931 l 415 932 q 405 920 413 931 q 386 891 396 910 q 365 845 375 872 q 348 782 354 817 l 252 147 m 524 1189 q 492 1131 519 1161 q 429 1075 465 1102 q 358 1027 394 1049 q 299 995 321 1006 l 166 995 q 213 1035 187 1009 q 263 1091 239 1062 q 306 1149 287 1121 q 327 1197 324 1178 l 425 1197 q 492 1196 461 1197 q 524 1191 524 1194 l 524 1189 z "},"":{"ha":337,"x_min":11,"x_max":506,"o":"m 252 147 q 249 123 249 134 q 249 102 249 112 q 262 30 249 56 q 278 0 275 3 l 21 0 l 11 11 q 38 47 14 13 q 73 150 62 81 l 171 785 q 173 848 176 821 q 165 892 171 875 q 154 920 160 910 q 147 932 148 931 l 415 932 q 405 920 413 931 q 386 891 396 910 q 365 845 375 872 q 348 782 354 817 l 252 147 m 322 1229 l 367 1167 q 437 1075 399 1125 q 506 995 476 1025 l 372 995 q 323 1036 348 1015 q 273 1082 299 1057 q 202 1031 236 1055 q 145 995 168 1007 l 14 995 q 99 1071 46 1022 q 203 1170 152 1121 q 233 1201 219 1185 q 260 1229 247 1216 l 322 1229 z "},"":{"ha":337,"x_min":11,"x_max":504,"o":"m 252 147 q 249 123 249 134 q 249 102 249 112 q 262 30 249 56 q 278 0 275 3 l 21 0 l 11 11 q 38 47 14 13 q 73 150 62 81 l 171 785 q 173 848 176 821 q 165 892 171 875 q 154 920 160 910 q 147 932 148 931 l 415 932 q 405 920 413 931 q 386 891 396 910 q 365 845 375 872 q 348 782 354 817 l 252 147 m 51 1105 q 93 1173 59 1148 q 171 1199 128 1199 q 239 1173 212 1199 q 259 1102 265 1146 q 219 1034 252 1058 q 144 1009 185 1009 q 72 1034 99 1009 q 51 1105 45 1060 m 292 1105 q 334 1173 300 1148 q 410 1199 367 1199 q 478 1173 452 1199 q 498 1102 504 1146 q 458 1034 492 1058 q 383 1009 425 1009 q 312 1034 338 1009 q 292 1105 286 1060 z "},"":{"ha":886,"x_min":45,"x_max":897,"o":"m 64 530 l 174 530 l 214 785 q 216 847 219 821 q 207 892 212 873 q 196 920 201 910 q 188 932 190 931 l 477 932 q 647 902 568 932 q 781 812 725 872 q 868 664 838 752 q 892 461 897 576 q 847 267 886 353 q 746 122 808 182 q 601 31 683 62 q 428 0 519 0 l 49 0 q 58 11 49 0 q 78 42 67 22 q 101 88 89 61 q 118 150 112 115 l 156 413 l 45 413 l 64 530 m 398 816 l 354 530 l 503 530 l 484 413 l 334 413 l 291 112 l 436 112 q 531 139 487 112 q 609 213 575 166 q 666 324 643 260 q 696 461 688 388 q 683 607 698 541 q 639 718 669 672 q 568 790 610 765 q 473 816 525 816 l 398 816 z "},"":{"ha":864,"x_min":72,"x_max":937,"o":"m 754 0 l 693 0 q 681 15 693 0 q 650 57 669 30 q 606 121 631 85 q 557 201 581 158 q 484 330 522 263 q 412 456 445 398 q 356 556 378 514 q 329 608 334 597 q 294 378 311 492 q 259 147 276 263 q 254 101 254 120 q 267 29 254 54 q 284 0 281 3 l 81 0 l 72 11 q 99 46 75 13 q 136 150 123 80 l 231 785 q 234 848 236 821 q 226 892 231 875 q 215 920 220 910 q 208 932 209 931 l 337 932 l 353 921 q 384 880 356 924 q 450 766 412 835 q 526 639 487 704 q 598 518 565 575 q 655 417 631 461 q 686 353 678 374 l 754 785 q 747 892 761 856 q 730 932 733 929 l 928 932 l 937 923 q 908 884 932 920 q 875 782 884 849 l 754 0 m 605 995 q 542 1005 570 995 q 492 1027 514 1015 q 452 1050 469 1039 q 421 1060 434 1060 q 397 1046 409 1060 q 374 995 385 1031 l 278 995 q 348 1118 297 1079 q 460 1157 399 1157 q 503 1148 479 1157 q 551 1127 527 1138 q 598 1106 575 1116 q 639 1097 621 1097 q 694 1157 674 1097 l 792 1157 q 721 1034 771 1074 q 605 995 670 995 z "},"":{"ha":932,"x_min":62,"x_max":940,"o":"m 64 484 q 117 688 73 599 q 226 837 160 777 q 374 924 292 896 q 544 947 457 951 q 700 909 627 942 q 826 818 773 876 q 910 678 880 760 q 940 495 940 597 q 939 467 940 482 q 937 436 939 452 q 884 249 928 332 q 775 109 841 166 q 627 20 709 51 q 458 -11 544 -11 q 307 30 378 -5 q 180 123 235 65 q 94 259 126 180 q 62 431 62 337 q 62 457 62 444 q 64 484 62 471 m 262 476 q 259 447 260 461 q 259 418 259 433 q 274 292 259 350 q 317 193 289 235 q 384 128 345 152 q 471 101 423 104 q 569 122 524 97 q 651 193 615 147 q 710 304 686 239 q 742 445 733 369 q 745 476 744 460 q 746 504 746 492 q 687 736 746 650 q 532 829 629 822 q 433 809 479 832 q 351 740 386 785 q 292 627 316 694 q 262 476 268 560 m 335 1191 q 369 1196 338 1194 q 436 1197 399 1197 l 532 1197 q 538 1149 528 1178 q 563 1092 548 1121 q 597 1037 578 1063 q 631 995 616 1011 l 498 995 q 452 1027 481 1006 q 395 1076 423 1049 q 349 1133 367 1103 q 335 1193 330 1164 l 335 1191 z "},"":{"ha":932,"x_min":62,"x_max":940,"o":"m 64 484 q 117 688 73 599 q 226 837 160 777 q 374 924 292 896 q 544 947 457 951 q 700 909 627 942 q 826 818 773 876 q 910 678 880 760 q 940 495 940 597 q 939 467 940 482 q 937 436 939 452 q 884 249 928 332 q 775 109 841 166 q 627 20 709 51 q 458 -11 544 -11 q 307 30 378 -5 q 180 123 235 65 q 94 259 126 180 q 62 431 62 337 q 62 457 62 444 q 64 484 62 471 m 262 476 q 259 447 260 461 q 259 418 259 433 q 274 292 259 350 q 317 193 289 235 q 384 128 345 152 q 471 101 423 104 q 569 122 524 97 q 651 193 615 147 q 710 304 686 239 q 742 445 733 369 q 745 476 744 460 q 746 504 746 492 q 687 736 746 650 q 532 829 629 822 q 433 809 479 832 q 351 740 386 785 q 292 627 316 694 q 262 476 268 560 m 824 1189 q 792 1131 819 1161 q 730 1075 765 1102 q 658 1027 694 1049 q 599 995 621 1006 l 466 995 q 513 1035 487 1009 q 564 1091 540 1062 q 606 1149 587 1121 q 627 1197 624 1178 l 725 1197 q 793 1196 761 1197 q 824 1191 824 1194 l 824 1189 z "},"":{"ha":932,"x_min":62,"x_max":940,"o":"m 64 484 q 117 688 73 599 q 226 837 160 777 q 374 924 292 896 q 544 947 457 951 q 700 909 627 942 q 826 818 773 876 q 910 678 880 760 q 940 495 940 597 q 939 467 940 482 q 937 436 939 452 q 884 249 928 332 q 775 109 841 166 q 627 20 709 51 q 458 -11 544 -11 q 307 30 378 -5 q 180 123 235 65 q 94 259 126 180 q 62 431 62 337 q 62 457 62 444 q 64 484 62 471 m 262 476 q 259 447 260 461 q 259 418 259 433 q 274 292 259 350 q 317 193 289 235 q 384 128 345 152 q 471 101 423 104 q 569 122 524 97 q 651 193 615 147 q 710 304 686 239 q 742 445 733 369 q 745 476 744 460 q 746 504 746 492 q 687 736 746 650 q 532 829 629 822 q 433 809 479 832 q 351 740 386 785 q 292 627 316 694 q 262 476 268 560 m 616 1213 l 661 1151 q 731 1059 693 1110 q 800 979 769 1009 l 666 979 q 617 1020 642 999 q 567 1066 592 1041 q 496 1015 530 1039 q 439 979 461 991 l 308 979 q 393 1055 340 1006 q 496 1154 445 1105 q 527 1185 512 1169 q 554 1213 541 1201 l 616 1213 z "},"":{"ha":932,"x_min":62,"x_max":940,"o":"m 64 484 q 117 688 73 599 q 226 837 160 777 q 374 924 292 896 q 544 947 457 951 q 700 909 627 942 q 826 818 773 876 q 910 678 880 760 q 940 495 940 597 q 939 467 940 482 q 937 436 939 452 q 884 249 928 332 q 775 109 841 166 q 627 20 709 51 q 458 -11 544 -11 q 307 30 378 -5 q 180 123 235 65 q 94 259 126 180 q 62 431 62 337 q 62 457 62 444 q 64 484 62 471 m 262 476 q 259 447 260 461 q 259 418 259 433 q 274 292 259 350 q 317 193 289 235 q 384 128 345 152 q 471 101 423 104 q 569 122 524 97 q 651 193 615 147 q 710 304 686 239 q 742 445 733 369 q 745 476 744 460 q 746 504 746 492 q 687 736 746 650 q 532 829 629 822 q 433 809 479 832 q 351 740 386 785 q 292 627 316 694 q 262 476 268 560 m 640 995 q 577 1005 605 995 q 527 1027 549 1015 q 487 1050 504 1039 q 457 1060 469 1060 q 432 1046 444 1060 q 409 995 420 1031 l 313 995 q 383 1118 332 1079 q 495 1157 434 1157 q 538 1148 514 1157 q 586 1127 562 1138 q 633 1106 610 1116 q 674 1097 656 1097 q 730 1157 709 1097 l 827 1157 q 756 1034 806 1074 q 640 995 706 995 z "},"":{"ha":932,"x_min":62,"x_max":940,"o":"m 64 484 q 117 688 73 599 q 226 837 160 777 q 374 924 292 896 q 544 947 457 951 q 700 909 627 942 q 826 818 773 876 q 910 678 880 760 q 940 495 940 597 q 939 467 940 482 q 937 436 939 452 q 884 249 928 332 q 775 109 841 166 q 627 20 709 51 q 458 -11 544 -11 q 307 30 378 -5 q 180 123 235 65 q 94 259 126 180 q 62 431 62 337 q 62 457 62 444 q 64 484 62 471 m 262 476 q 259 447 260 461 q 259 418 259 433 q 274 292 259 350 q 317 193 289 235 q 384 128 345 152 q 471 101 423 104 q 569 122 524 97 q 651 193 615 147 q 710 304 686 239 q 742 445 733 369 q 745 476 744 460 q 746 504 746 492 q 687 736 746 650 q 532 829 629 822 q 433 809 479 832 q 351 740 386 785 q 292 627 316 694 q 262 476 268 560 m 346 1105 q 389 1173 354 1148 q 466 1199 423 1199 q 534 1173 508 1199 q 554 1102 560 1146 q 514 1034 548 1058 q 439 1009 481 1009 q 367 1034 394 1009 q 346 1105 340 1060 m 587 1105 q 629 1173 595 1148 q 706 1199 663 1199 q 773 1173 747 1199 q 793 1102 800 1146 q 754 1034 787 1058 q 678 1009 720 1009 q 607 1034 634 1009 q 587 1105 581 1060 z "},"":{"ha":725,"x_min":120,"x_max":686,"o":"m 686 597 l 495 423 l 634 249 l 528 155 l 388 327 q 291 240 342 286 q 196 155 239 195 l 120 249 l 311 423 q 242 511 278 468 q 171 597 206 554 l 279 693 l 418 520 q 516 607 463 562 q 610 693 568 651 l 686 597 z "},"":{"ha":932,"x_min":-11,"x_max":1014,"o":"m -11 0 l 870 947 l 1014 947 l 131 0 l -11 0 m 61 496 q 119 700 73 613 q 231 845 164 787 q 379 928 297 902 q 549 945 461 953 q 703 903 632 937 q 826 811 774 868 q 908 674 878 754 q 937 498 937 595 q 932 423 937 461 q 876 234 920 318 q 765 93 832 150 q 617 10 699 37 q 445 -10 535 -18 q 293 31 364 -3 q 169 123 222 65 q 87 258 117 180 q 57 429 57 335 q 57 464 57 447 q 61 498 57 481 l 61 496 m 257 484 q 255 453 255 468 q 254 421 254 437 q 311 200 254 287 q 460 101 369 113 q 558 125 511 101 q 642 192 605 148 q 704 298 678 236 q 738 436 730 359 q 741 472 741 455 q 741 506 741 489 q 686 734 741 648 q 536 827 631 819 q 437 810 484 832 q 353 745 390 789 q 291 635 316 701 q 257 484 267 568 z "},"":{"ha":862,"x_min":93,"x_max":937,"o":"m 278 311 q 273 259 273 283 q 305 144 273 187 q 404 102 337 102 q 453 108 426 102 q 505 123 479 113 q 556 146 532 133 q 597 174 580 160 q 643 480 619 327 q 690 785 667 632 q 692 848 694 821 q 684 892 690 875 q 673 920 678 910 q 666 932 667 931 l 937 932 q 927 920 936 931 q 907 889 918 908 q 885 843 896 870 q 868 782 875 816 q 819 465 845 627 q 771 147 793 302 q 768 123 768 134 q 768 102 768 112 q 781 30 768 56 q 797 0 793 3 l 605 0 q 595 31 599 10 q 589 72 592 53 q 534 31 565 46 q 470 7 503 16 q 407 -6 437 -2 q 354 -10 377 -10 q 232 7 283 -10 q 151 54 182 24 q 106 127 120 85 q 93 222 93 169 q 95 264 93 241 q 101 310 97 287 l 172 785 q 177 830 177 811 q 163 903 177 876 q 145 932 148 929 l 421 932 q 409 920 418 929 q 389 891 401 910 q 366 845 377 872 q 350 782 354 817 l 278 311 m 345 1191 q 378 1196 348 1194 q 445 1197 409 1197 l 541 1197 q 548 1149 538 1178 q 572 1092 557 1121 q 607 1037 587 1063 q 640 995 626 1011 l 508 995 q 461 1027 490 1006 q 405 1076 433 1049 q 358 1133 377 1103 q 345 1193 340 1164 l 345 1191 z "},"":{"ha":862,"x_min":93,"x_max":937,"o":"m 278 311 q 273 259 273 283 q 305 144 273 187 q 404 102 337 102 q 453 108 426 102 q 505 123 479 113 q 556 146 532 133 q 597 174 580 160 q 643 480 619 327 q 690 785 667 632 q 692 848 694 821 q 684 892 690 875 q 673 920 678 910 q 666 932 667 931 l 937 932 q 927 920 936 931 q 907 889 918 908 q 885 843 896 870 q 868 782 875 816 q 819 465 845 627 q 771 147 793 302 q 768 123 768 134 q 768 102 768 112 q 781 30 768 56 q 797 0 793 3 l 605 0 q 595 31 599 10 q 589 72 592 53 q 534 31 565 46 q 470 7 503 16 q 407 -6 437 -2 q 354 -10 377 -10 q 232 7 283 -10 q 151 54 182 24 q 106 127 120 85 q 93 222 93 169 q 95 264 93 241 q 101 310 97 287 l 172 785 q 177 830 177 811 q 163 903 177 876 q 145 932 148 929 l 421 932 q 409 920 418 929 q 389 891 401 910 q 366 845 377 872 q 350 782 354 817 l 278 311 m 789 1189 q 757 1131 784 1161 q 694 1075 730 1102 q 623 1027 659 1049 q 564 995 586 1006 l 431 995 q 478 1035 452 1009 q 528 1091 504 1062 q 571 1149 552 1121 q 592 1197 589 1178 l 690 1197 q 758 1196 726 1197 q 789 1191 789 1194 l 789 1189 z "},"":{"ha":862,"x_min":93,"x_max":937,"o":"m 278 311 q 273 259 273 283 q 305 144 273 187 q 404 102 337 102 q 453 108 426 102 q 505 123 479 113 q 556 146 532 133 q 597 174 580 160 q 643 480 619 327 q 690 785 667 632 q 692 848 694 821 q 684 892 690 875 q 673 920 678 910 q 666 932 667 931 l 937 932 q 927 920 936 931 q 907 889 918 908 q 885 843 896 870 q 868 782 875 816 q 819 465 845 627 q 771 147 793 302 q 768 123 768 134 q 768 102 768 112 q 781 30 768 56 q 797 0 793 3 l 605 0 q 595 31 599 10 q 589 72 592 53 q 534 31 565 46 q 470 7 503 16 q 407 -6 437 -2 q 354 -10 377 -10 q 232 7 283 -10 q 151 54 182 24 q 106 127 120 85 q 93 222 93 169 q 95 264 93 241 q 101 310 97 287 l 172 785 q 177 830 177 811 q 163 903 177 876 q 145 932 148 929 l 421 932 q 409 920 418 929 q 389 891 401 910 q 366 845 377 872 q 350 782 354 817 l 278 311 m 581 1229 l 626 1167 q 696 1075 658 1125 q 765 995 734 1025 l 631 995 q 582 1036 607 1015 q 532 1082 557 1057 q 461 1031 495 1055 q 404 995 426 1007 l 273 995 q 358 1071 305 1022 q 461 1170 410 1121 q 492 1201 477 1185 q 519 1229 506 1216 l 581 1229 z "},"":{"ha":862,"x_min":93,"x_max":937,"o":"m 278 311 q 273 259 273 283 q 305 144 273 187 q 404 102 337 102 q 453 108 426 102 q 505 123 479 113 q 556 146 532 133 q 597 174 580 160 q 643 480 619 327 q 690 785 667 632 q 692 848 694 821 q 684 892 690 875 q 673 920 678 910 q 666 932 667 931 l 937 932 q 927 920 936 931 q 907 889 918 908 q 885 843 896 870 q 868 782 875 816 q 819 465 845 627 q 771 147 793 302 q 768 123 768 134 q 768 102 768 112 q 781 30 768 56 q 797 0 793 3 l 605 0 q 595 31 599 10 q 589 72 592 53 q 534 31 565 46 q 470 7 503 16 q 407 -6 437 -2 q 354 -10 377 -10 q 232 7 283 -10 q 151 54 182 24 q 106 127 120 85 q 93 222 93 169 q 95 264 93 241 q 101 310 97 287 l 172 785 q 177 830 177 811 q 163 903 177 876 q 145 932 148 929 l 421 932 q 409 920 418 929 q 389 891 401 910 q 366 845 377 872 q 350 782 354 817 l 278 311 m 311 1105 q 354 1173 319 1148 q 431 1199 388 1199 q 499 1173 473 1199 q 519 1102 525 1146 q 479 1034 512 1058 q 404 1009 445 1009 q 332 1034 359 1009 q 311 1105 305 1060 m 552 1105 q 594 1173 560 1148 q 670 1199 627 1199 q 738 1173 712 1199 q 758 1102 765 1146 q 718 1034 752 1058 q 643 1009 685 1009 q 572 1034 599 1009 q 552 1105 546 1060 z "},"":{"ha":832,"x_min":104,"x_max":940,"o":"m 528 366 l 532 367 l 498 147 q 493 101 493 120 q 507 29 493 54 q 524 0 520 3 l 265 0 l 255 11 q 265 20 257 11 q 284 46 273 29 q 306 89 295 64 q 321 150 316 115 l 353 370 l 354 367 l 180 813 l 180 811 q 137 888 160 857 q 104 932 115 920 l 412 932 q 397 909 409 929 q 385 859 385 889 q 386 836 385 846 q 391 816 388 825 l 391 817 l 501 548 l 678 817 q 698 857 693 838 q 704 892 704 876 q 701 917 704 907 q 696 932 698 928 l 940 932 q 899 894 934 926 q 827 811 864 862 l 528 366 m 768 1173 q 736 1115 763 1145 q 674 1059 709 1086 q 602 1011 639 1033 q 543 979 565 990 l 410 979 q 457 1019 431 993 q 508 1075 484 1046 q 550 1133 532 1105 q 572 1181 568 1162 l 669 1181 q 737 1180 706 1181 q 768 1175 768 1178 l 768 1173 z "},"":{"ha":688,"x_min":6,"x_max":704,"o":"m 433 932 q 375 868 398 908 q 345 785 353 827 q 344 781 345 782 q 343 776 343 779 l 346 776 q 492 759 425 776 q 606 706 559 742 q 678 615 653 670 q 699 482 704 560 q 661 365 693 417 q 576 277 629 313 q 455 223 524 241 q 307 204 386 204 l 257 204 l 249 147 q 246 123 246 134 q 246 102 246 112 q 258 30 246 56 q 273 0 270 3 l 16 0 l 6 11 q 34 47 10 13 q 70 150 59 81 l 166 785 q 168 848 171 821 q 160 892 166 875 q 149 920 155 910 q 142 932 144 931 l 433 932 m 326 659 l 273 316 l 314 316 q 448 360 399 316 q 503 482 496 404 q 468 620 511 581 q 340 659 425 659 l 326 659 z "},"":{"ha":808,"x_min":-83,"x_max":785,"o":"m 603 158 q 585 217 607 190 q 532 271 564 244 q 480 322 506 295 q 433 381 453 350 q 403 448 413 412 q 399 527 393 484 q 442 621 409 583 q 509 690 476 659 q 548 727 530 707 q 570 779 565 747 q 557 840 573 816 q 503 864 541 864 q 418 819 452 864 q 372 709 385 774 q 361 631 367 669 q 350 552 354 592 l 257 -56 q 227 -142 249 -102 q 175 -211 206 -182 q 108 -256 144 -239 q 38 -273 72 -273 q -42 -252 -13 -273 q -83 -200 -70 -231 q -27 -187 -54 -200 q 22 -152 0 -174 q 61 -101 45 -129 q 83 -38 77 -72 l 117 196 l 169 549 l 73 549 l 89 648 l 185 648 l 195 714 q 229 817 203 769 q 296 897 255 864 q 388 950 337 931 q 498 969 439 969 q 621 949 572 969 q 699 899 670 929 q 738 831 728 868 q 742 758 747 793 q 700 667 734 706 q 632 602 666 629 q 597 569 613 586 q 576 525 581 552 q 595 467 572 495 q 647 412 619 439 q 698 362 672 390 q 745 304 725 335 q 775 236 765 273 q 779 156 785 200 q 747 78 771 110 q 688 27 723 46 q 609 -1 653 8 q 520 -10 565 -10 q 413 5 465 -10 q 334 35 361 19 l 350 193 q 438 122 386 148 q 532 96 490 96 q 577 109 557 96 q 603 160 597 123 l 603 158 z "},"":{"ha":686,"x_min":48,"x_max":717,"o":"m 603 125 q 611 76 599 94 q 655 65 623 57 q 601 9 637 24 q 535 -6 565 -6 q 474 12 503 -6 q 433 67 445 30 q 375 11 412 30 q 297 -8 338 -8 q 192 14 239 -8 q 113 78 145 37 q 64 180 80 120 q 53 314 48 239 q 87 452 59 390 q 158 560 115 514 q 255 631 201 605 q 364 656 308 656 q 442 641 404 656 q 496 594 481 626 l 514 648 l 717 648 q 694 618 714 645 q 664 532 674 591 l 603 125 m 231 322 q 235 220 227 262 q 261 153 244 179 q 301 117 278 128 q 346 105 324 105 q 434 176 402 105 l 433 174 q 457 333 445 254 q 482 492 469 412 l 482 496 q 446 534 466 524 q 396 544 426 544 q 289 489 337 544 q 231 322 241 433 m 147 923 q 180 928 150 926 q 247 929 211 929 l 343 929 q 350 881 340 910 q 374 824 359 852 q 409 769 390 795 q 442 726 428 742 l 310 726 q 263 759 292 738 q 207 808 235 781 q 160 865 179 835 q 147 924 142 896 l 147 923 z "},"":{"ha":682,"x_min":48,"x_max":717,"o":"m 603 125 q 611 76 599 94 q 655 65 623 57 q 601 9 637 24 q 535 -6 565 -6 q 474 12 503 -6 q 433 67 445 30 q 375 11 412 30 q 297 -8 338 -8 q 192 14 239 -8 q 113 78 145 37 q 64 180 80 120 q 53 314 48 239 q 87 452 59 390 q 158 560 115 514 q 255 631 201 605 q 364 656 308 656 q 442 641 404 656 q 496 594 481 626 l 514 648 l 717 648 q 694 618 714 645 q 664 532 674 591 l 603 125 m 231 322 q 235 220 227 262 q 261 153 244 179 q 301 117 278 128 q 346 105 324 105 q 434 176 402 105 l 433 174 q 457 333 445 254 q 482 492 469 412 l 482 496 q 446 534 466 524 q 396 544 426 544 q 289 489 337 544 q 231 322 241 433 m 589 921 q 557 863 584 892 q 495 807 530 833 q 423 759 460 781 q 364 726 386 738 l 231 726 q 279 767 252 741 q 329 823 305 793 q 371 881 353 852 q 393 929 390 910 l 490 929 q 558 928 527 929 q 589 923 589 926 l 589 921 z "},"":{"ha":682,"x_min":48,"x_max":717,"o":"m 603 125 q 611 76 599 94 q 655 65 623 57 q 601 9 637 24 q 535 -6 565 -6 q 474 12 503 -6 q 433 67 445 30 q 375 11 412 30 q 297 -8 338 -8 q 192 14 239 -8 q 113 78 145 37 q 64 180 80 120 q 53 314 48 239 q 87 452 59 390 q 158 560 115 514 q 255 631 201 605 q 364 656 308 656 q 442 641 404 656 q 496 594 481 626 l 514 648 l 717 648 q 694 618 714 645 q 664 532 674 591 l 603 125 m 231 322 q 235 220 227 262 q 261 153 244 179 q 301 117 278 128 q 346 105 324 105 q 434 176 402 105 l 433 174 q 457 333 445 254 q 482 492 469 412 l 482 496 q 446 534 466 524 q 396 544 426 544 q 289 489 337 544 q 231 322 241 433 m 415 961 l 460 899 q 530 807 492 857 q 599 726 568 757 l 465 726 q 416 768 441 747 q 366 814 391 789 q 295 763 329 787 q 238 726 260 739 l 107 726 q 192 803 139 754 q 295 902 244 852 q 326 932 311 916 q 353 961 340 948 l 415 961 z "},"":{"ha":680,"x_min":48,"x_max":717,"o":"m 603 125 q 611 76 599 94 q 655 65 623 57 q 601 9 637 24 q 535 -6 565 -6 q 474 12 503 -6 q 433 67 445 30 q 375 11 412 30 q 297 -8 338 -8 q 192 14 239 -8 q 113 78 145 37 q 64 180 80 120 q 53 314 48 239 q 87 452 59 390 q 158 560 115 514 q 255 631 201 605 q 364 656 308 656 q 442 641 404 656 q 496 594 481 626 l 514 648 l 717 648 q 694 618 714 645 q 664 532 674 591 l 603 125 m 231 322 q 235 220 227 262 q 261 153 244 179 q 301 117 278 128 q 346 105 324 105 q 434 176 402 105 l 433 174 q 457 333 445 254 q 482 492 469 412 l 482 496 q 446 534 466 524 q 396 544 426 544 q 289 489 337 544 q 231 322 241 433 m 453 742 q 390 753 418 742 q 340 775 362 763 q 300 797 318 787 q 270 808 283 808 q 245 793 257 808 q 222 742 233 779 l 126 742 q 196 866 145 827 q 308 905 247 905 q 351 896 327 905 q 399 875 375 886 q 446 854 423 864 q 487 845 469 845 q 543 905 522 845 l 640 905 q 569 782 619 822 q 453 742 519 742 z "},"":{"ha":683,"x_min":48,"x_max":717,"o":"m 603 125 q 611 76 599 94 q 655 65 623 57 q 601 9 637 24 q 535 -6 565 -6 q 474 12 503 -6 q 433 67 445 30 q 375 11 412 30 q 297 -8 338 -8 q 192 14 239 -8 q 113 78 145 37 q 64 180 80 120 q 53 314 48 239 q 87 452 59 390 q 158 560 115 514 q 255 631 201 605 q 364 656 308 656 q 442 641 404 656 q 496 594 481 626 l 514 648 l 717 648 q 694 618 714 645 q 664 532 674 591 l 603 125 m 231 322 q 235 220 227 262 q 261 153 244 179 q 301 117 278 128 q 346 105 324 105 q 434 176 402 105 l 433 174 q 457 333 445 254 q 482 492 469 412 l 482 496 q 446 534 466 524 q 396 544 426 544 q 289 489 337 544 q 231 322 241 433 m 160 837 q 202 905 168 880 q 279 931 236 931 q 347 904 321 931 q 367 833 374 878 q 327 765 361 790 q 252 741 294 741 q 180 766 208 741 q 160 837 153 792 m 401 837 q 442 905 409 880 q 519 931 476 931 q 587 904 560 931 q 607 833 613 878 q 567 765 600 790 q 492 741 533 741 q 421 766 447 741 q 401 837 394 792 z "},"":{"ha":678,"x_min":48,"x_max":717,"o":"m 603 125 q 611 76 599 94 q 655 65 623 57 q 601 9 637 24 q 535 -6 565 -6 q 474 12 503 -6 q 433 67 445 30 q 375 11 412 30 q 297 -8 338 -8 q 192 14 239 -8 q 113 78 145 37 q 64 180 80 120 q 53 314 48 239 q 87 452 59 390 q 158 560 115 514 q 255 631 201 605 q 364 656 308 656 q 442 641 404 656 q 496 594 481 626 l 514 648 l 717 648 q 694 618 714 645 q 664 532 674 591 l 603 125 m 231 322 q 235 220 227 262 q 261 153 244 179 q 301 117 278 128 q 346 105 324 105 q 434 176 402 105 l 433 174 q 457 333 445 254 q 482 492 469 412 l 482 496 q 446 534 466 524 q 396 544 426 544 q 289 489 337 544 q 231 322 241 433 m 246 833 q 264 880 251 857 q 299 919 278 902 q 346 945 321 936 q 401 955 372 955 q 492 918 457 955 q 519 830 527 881 q 501 782 516 805 q 466 744 487 760 q 419 718 445 728 q 364 709 393 709 q 274 745 308 709 q 246 832 239 781 l 246 833 m 346 832 q 352 793 343 809 q 374 776 361 776 q 402 793 388 776 q 418 833 415 811 q 413 871 421 856 q 391 886 405 886 q 364 869 377 886 q 346 830 351 852 l 346 832 z "},"":{"ha":1034,"x_min":43,"x_max":1060,"o":"m 824 656 q 937 639 891 656 q 1011 595 983 623 q 1050 534 1039 568 q 1055 466 1060 500 q 1030 404 1049 434 q 975 350 1011 374 q 888 311 940 326 q 763 295 837 295 l 635 295 q 641 218 631 255 q 674 152 651 180 q 727 106 696 123 q 795 89 758 89 q 901 112 851 89 q 990 171 951 134 l 974 48 q 888 9 948 27 q 755 -10 829 -10 q 603 21 670 -10 q 495 115 535 51 q 447 57 474 80 q 392 19 420 34 q 338 -2 364 5 q 292 -8 311 -8 q 188 14 235 -8 q 108 78 140 37 q 59 180 75 120 q 48 314 43 239 q 82 452 54 390 q 153 560 110 514 q 250 631 196 605 q 359 656 303 656 q 437 641 399 656 q 492 594 476 626 l 509 648 l 643 648 q 632 600 640 645 q 724 642 675 627 q 824 656 773 656 m 227 322 q 231 220 222 262 q 256 153 239 179 q 296 117 273 128 q 342 105 319 105 q 429 176 398 105 l 428 174 l 477 492 l 477 496 q 441 534 461 524 q 391 544 421 544 q 284 489 332 544 q 227 322 236 433 m 808 552 q 710 507 752 552 q 650 394 667 461 l 779 394 q 855 417 825 394 q 889 466 884 439 q 876 525 894 498 q 808 552 859 552 z "},"":{"ha":591,"x_min":53,"x_max":608,"o":"m 236 318 q 262 152 227 214 q 374 89 297 89 q 461 110 412 89 q 570 169 511 131 l 536 48 q 461 9 512 27 q 334 -10 409 -10 q 222 9 273 -10 q 133 63 171 27 q 74 152 96 99 q 53 271 53 204 q 53 294 53 281 q 54 318 53 307 q 96 459 62 396 q 178 566 129 522 q 288 634 227 610 q 413 658 350 658 q 524 646 469 658 q 608 618 580 634 l 589 485 q 514 533 557 512 q 425 554 471 554 q 298 491 348 554 q 236 318 247 428 m 346 11 q 360 13 345 11 q 393 18 375 14 l 441 24 q 421 -8 429 8 q 405 -35 413 -21 q 393 -59 398 -49 q 434 -67 412 -61 q 474 -88 457 -73 q 502 -126 492 -102 q 509 -187 512 -150 q 446 -297 495 -255 q 346 -361 398 -338 q 212 -399 284 -388 l 184 -345 q 262 -322 227 -340 q 319 -283 292 -308 q 354 -211 346 -257 q 339 -155 361 -168 q 295 -142 318 -142 q 274 -144 287 -142 q 247 -148 260 -145 q 217 -155 231 -152 q 273 -72 247 -109 q 316 -14 295 -40 q 346 11 337 11 z "},"":{"ha":639,"x_min":48,"x_max":661,"o":"m 425 656 q 538 639 492 656 q 612 595 584 623 q 651 534 640 568 q 656 466 661 500 q 631 404 650 434 q 576 350 611 374 q 489 311 541 326 q 364 295 437 295 l 236 295 q 242 218 231 255 q 275 152 252 180 q 328 106 297 123 q 396 89 359 89 q 502 112 452 89 q 591 171 552 134 l 575 48 q 489 9 549 27 q 356 -10 429 -10 q 231 10 289 -10 q 133 71 174 30 q 69 173 91 112 q 54 318 48 235 q 94 453 61 391 q 179 560 128 516 q 294 631 230 605 q 425 656 358 656 m 409 552 q 311 507 353 552 q 251 394 268 461 l 380 394 q 456 417 426 394 q 490 466 485 439 q 477 525 495 498 q 409 552 460 552 m 257 923 q 291 928 260 926 q 358 929 321 929 l 453 929 q 460 881 450 910 q 485 824 469 852 q 519 769 500 795 q 552 726 538 742 l 420 726 q 374 759 402 738 q 317 808 345 781 q 271 865 289 835 q 257 924 252 896 l 257 923 z "},"":{"ha":643,"x_min":48,"x_max":661,"o":"m 425 656 q 538 639 492 656 q 612 595 584 623 q 651 534 640 568 q 656 466 661 500 q 631 404 650 434 q 576 350 611 374 q 489 311 541 326 q 364 295 437 295 l 236 295 q 242 218 231 255 q 275 152 252 180 q 328 106 297 123 q 396 89 359 89 q 502 112 452 89 q 591 171 552 134 l 575 48 q 489 9 549 27 q 356 -10 429 -10 q 231 10 289 -10 q 133 71 174 30 q 69 173 91 112 q 54 318 48 235 q 94 453 61 391 q 179 560 128 516 q 294 631 230 605 q 425 656 358 656 m 409 552 q 311 507 353 552 q 251 394 268 461 l 380 394 q 456 417 426 394 q 490 466 485 439 q 477 525 495 498 q 409 552 460 552 m 580 921 q 548 863 575 892 q 485 807 520 833 q 413 759 450 781 q 354 726 377 738 l 222 726 q 269 767 243 741 q 319 823 295 793 q 362 881 343 852 q 383 929 380 910 l 481 929 q 548 928 517 929 q 580 923 580 926 l 580 921 z "},"":{"ha":643,"x_min":48,"x_max":661,"o":"m 425 656 q 538 639 492 656 q 612 595 584 623 q 651 534 640 568 q 656 466 661 500 q 631 404 650 434 q 576 350 611 374 q 489 311 541 326 q 364 295 437 295 l 236 295 q 242 218 231 255 q 275 152 252 180 q 328 106 297 123 q 396 89 359 89 q 502 112 452 89 q 591 171 552 134 l 575 48 q 489 9 549 27 q 356 -10 429 -10 q 231 10 289 -10 q 133 71 174 30 q 69 173 91 112 q 54 318 48 235 q 94 453 61 391 q 179 560 128 516 q 294 631 230 605 q 425 656 358 656 m 409 552 q 311 507 353 552 q 251 394 268 461 l 380 394 q 456 417 426 394 q 490 466 485 439 q 477 525 495 498 q 409 552 460 552 m 449 961 l 493 899 q 564 807 525 857 q 632 726 602 757 l 498 726 q 449 768 474 747 q 399 814 425 789 q 328 763 362 787 q 271 726 294 739 l 140 726 q 225 803 172 754 q 329 902 278 852 q 359 932 345 916 q 386 961 374 948 l 449 961 z "},"":{"ha":642,"x_min":48,"x_max":661,"o":"m 425 656 q 538 639 492 656 q 612 595 584 623 q 651 534 640 568 q 656 466 661 500 q 631 404 650 434 q 576 350 611 374 q 489 311 541 326 q 364 295 437 295 l 236 295 q 242 218 231 255 q 275 152 252 180 q 328 106 297 123 q 396 89 359 89 q 502 112 452 89 q 591 171 552 134 l 575 48 q 489 9 549 27 q 356 -10 429 -10 q 231 10 289 -10 q 133 71 174 30 q 69 173 91 112 q 54 318 48 235 q 94 453 61 391 q 179 560 128 516 q 294 631 230 605 q 425 656 358 656 m 409 552 q 311 507 353 552 q 251 394 268 461 l 380 394 q 456 417 426 394 q 490 466 485 439 q 477 525 495 498 q 409 552 460 552 m 177 837 q 220 905 185 880 q 297 931 254 931 q 365 904 338 931 q 385 833 391 878 q 345 765 378 790 q 270 741 311 741 q 198 766 225 741 q 177 837 171 792 m 418 837 q 460 905 426 880 q 536 931 493 931 q 604 904 578 931 q 624 833 631 878 q 584 765 618 790 q 509 741 551 741 q 438 766 465 741 q 418 837 412 792 z "},"":{"ha":338,"x_min":24,"x_max":374,"o":"m 289 22 q 176 -8 227 -8 q 92 30 112 -8 q 78 113 72 67 l 142 527 q 142 611 152 586 q 129 640 133 637 l 374 659 q 366 651 374 658 q 351 628 359 643 q 335 591 343 613 q 322 540 327 570 l 257 110 q 254 69 252 85 q 259 47 255 54 q 270 38 263 40 q 281 35 276 35 l 289 22 m 29 923 q 62 928 32 926 q 129 929 93 929 l 225 929 q 231 881 222 910 q 256 824 241 852 q 291 769 271 795 q 324 726 310 742 l 192 726 q 145 759 174 738 q 89 808 117 781 q 42 865 61 835 q 29 924 24 896 l 29 923 z "},"":{"ha":338,"x_min":72,"x_max":473,"o":"m 289 22 q 176 -8 227 -8 q 92 30 112 -8 q 78 113 72 67 l 142 527 q 142 611 152 586 q 129 640 133 637 l 374 659 q 366 651 374 658 q 351 628 359 643 q 335 591 343 613 q 322 540 327 570 l 257 110 q 254 69 252 85 q 259 47 255 54 q 270 38 263 40 q 281 35 276 35 l 289 22 m 473 921 q 441 863 468 892 q 378 807 413 833 q 307 759 343 781 q 247 726 270 738 l 115 726 q 162 767 136 741 q 212 823 188 793 q 255 881 236 852 q 276 929 273 910 l 374 929 q 441 928 410 929 q 473 923 473 926 l 473 921 z "},"":{"ha":338,"x_min":-27,"x_max":465,"o":"m 289 22 q 176 -8 227 -8 q 92 30 112 -8 q 78 113 72 67 l 142 527 q 142 611 152 586 q 129 640 133 637 l 374 659 q 366 651 374 658 q 351 628 359 643 q 335 591 343 613 q 322 540 327 570 l 257 110 q 254 69 252 85 q 259 47 255 54 q 270 38 263 40 q 281 35 276 35 l 289 22 m 281 961 l 326 899 q 396 807 358 857 q 465 726 434 757 l 330 726 q 282 768 307 747 q 231 814 257 789 q 160 763 195 787 q 104 726 126 739 l -27 726 q 57 803 5 754 q 161 902 110 852 q 192 932 177 916 q 219 961 206 948 l 281 961 z "},"":{"ha":338,"x_min":5,"x_max":465,"o":"m 289 22 q 176 -8 227 -8 q 92 30 112 -8 q 78 113 72 67 l 142 527 q 142 611 152 586 q 129 640 133 637 l 374 659 q 366 651 374 658 q 351 628 359 643 q 335 591 343 613 q 322 540 327 570 l 257 110 q 254 69 252 85 q 259 47 255 54 q 270 38 263 40 q 281 35 276 35 l 289 22 m 11 837 q 53 905 19 880 q 131 931 88 931 q 199 904 172 931 q 219 833 225 878 q 179 765 212 790 q 104 741 145 741 q 32 766 59 741 q 11 837 5 792 m 252 837 q 294 905 260 880 q 370 931 327 931 q 438 904 412 931 q 458 833 465 878 q 418 765 452 790 q 343 741 385 741 q 272 766 299 741 q 252 837 246 792 z "},"":{"ha":675,"x_min":40,"x_max":659,"o":"m 404 648 q 429 643 413 647 q 461 637 445 640 q 409 754 442 704 q 343 840 377 805 q 282 895 310 875 q 244 921 254 915 l 358 969 q 398 933 370 956 q 458 877 425 910 q 527 801 492 845 q 591 701 562 757 q 640 577 621 645 q 659 429 659 509 q 657 381 659 404 q 651 332 655 358 q 607 180 639 246 q 528 69 575 113 q 425 5 482 26 q 305 -8 367 -16 q 109 83 177 5 q 40 281 40 161 q 42 317 40 299 q 46 353 43 335 q 93 482 57 425 q 176 579 128 540 q 284 636 225 618 q 404 648 343 655 m 223 346 q 219 286 219 313 q 252 150 219 195 q 326 102 286 105 q 367 110 345 101 q 409 144 390 120 q 446 213 429 169 q 473 324 463 257 q 476 346 476 337 q 476 369 476 356 q 451 488 476 436 q 383 544 426 540 q 338 536 362 546 q 291 501 314 525 q 250 439 268 477 q 223 346 231 401 m 219 761 l 576 987 l 621 904 l 262 682 l 219 761 z "},"":{"ha":714,"x_min":35,"x_max":688,"o":"m 501 429 q 497 512 509 481 q 457 543 485 544 q 383 520 420 540 q 311 468 346 500 l 259 115 q 254 70 254 86 q 260 25 254 42 q 270 0 267 8 l 35 0 q 55 33 38 3 q 81 118 72 62 l 144 535 q 144 619 153 594 q 131 648 134 645 l 332 648 q 331 615 332 640 q 327 567 330 589 q 417 630 374 608 q 504 656 461 651 q 595 651 559 661 q 651 622 631 642 q 680 574 672 602 q 688 514 688 546 q 683 449 688 482 l 631 110 q 630 72 627 86 q 638 49 632 57 q 651 38 643 42 q 666 35 659 35 l 674 24 q 549 -8 610 -8 q 497 2 517 -8 q 466 30 477 13 q 453 69 455 46 q 453 113 450 91 l 501 429 l 501 429 m 492 742 q 429 753 457 742 q 378 775 401 763 q 338 797 356 787 q 308 808 321 808 q 283 793 295 808 q 260 742 271 779 l 164 742 q 235 866 184 827 q 346 905 286 905 q 390 896 366 905 q 437 875 413 886 q 485 854 461 864 q 525 845 508 845 q 581 905 560 845 l 678 905 q 607 782 658 822 q 492 742 557 742 z "},"":{"ha":699,"x_min":51,"x_max":691,"o":"m 56 329 q 93 473 62 410 q 169 576 123 535 q 275 639 216 618 q 399 658 335 659 q 515 629 461 655 q 608 557 568 603 q 670 447 648 511 q 690 305 691 383 q 654 171 683 230 q 578 71 624 112 q 472 9 532 30 q 348 -10 412 -13 q 228 17 284 -8 q 133 85 172 42 q 72 191 93 129 q 56 329 51 252 m 238 322 q 262 155 230 219 q 354 88 294 91 q 459 145 418 85 q 508 311 500 206 q 485 487 517 421 q 391 554 452 552 q 287 495 329 557 q 238 322 246 433 m 270 923 q 303 928 273 926 q 370 929 334 929 l 466 929 q 473 881 463 910 q 497 824 482 852 q 532 769 512 795 q 565 726 551 742 l 433 726 q 386 759 415 738 q 330 808 358 781 q 283 865 302 835 q 270 924 265 896 l 270 923 z "},"":{"ha":699,"x_min":51,"x_max":691,"o":"m 56 329 q 93 473 62 410 q 169 576 123 535 q 275 639 216 618 q 399 658 335 659 q 515 629 461 655 q 608 557 568 603 q 670 447 648 511 q 690 305 691 383 q 654 171 683 230 q 578 71 624 112 q 472 9 532 30 q 348 -10 412 -13 q 228 17 284 -8 q 133 85 172 42 q 72 191 93 129 q 56 329 51 252 m 238 322 q 262 155 230 219 q 354 88 294 91 q 459 145 418 85 q 508 311 500 206 q 485 487 517 421 q 391 554 452 552 q 287 495 329 557 q 238 322 246 433 m 591 921 q 559 863 586 892 q 496 807 532 833 q 425 759 461 781 q 366 726 388 738 l 233 726 q 280 767 254 741 q 330 823 307 793 q 373 881 354 852 q 394 929 391 910 l 492 929 q 560 928 528 929 q 591 923 591 926 l 591 921 z "},"":{"ha":699,"x_min":51,"x_max":691,"o":"m 56 329 q 93 473 62 410 q 169 576 123 535 q 275 639 216 618 q 399 658 335 659 q 515 629 461 655 q 608 557 568 603 q 670 447 648 511 q 690 305 691 383 q 654 171 683 230 q 578 71 624 112 q 472 9 532 30 q 348 -10 412 -13 q 228 17 284 -8 q 133 85 172 42 q 72 191 93 129 q 56 329 51 252 m 238 322 q 262 155 230 219 q 354 88 294 91 q 459 145 418 85 q 508 311 500 206 q 485 487 517 421 q 391 554 452 552 q 287 495 329 557 q 238 322 246 433 m 461 961 l 506 899 q 576 807 538 857 q 645 726 615 757 l 511 726 q 462 768 487 747 q 412 814 437 789 q 341 763 375 787 q 284 726 307 739 l 153 726 q 238 803 185 754 q 342 902 291 852 q 372 932 358 916 q 399 961 386 948 l 461 961 z "},"":{"ha":699,"x_min":51,"x_max":691,"o":"m 56 329 q 93 473 62 410 q 169 576 123 535 q 275 639 216 618 q 399 658 335 659 q 515 629 461 655 q 608 557 568 603 q 670 447 648 511 q 690 305 691 383 q 654 171 683 230 q 578 71 624 112 q 472 9 532 30 q 348 -10 412 -13 q 228 17 284 -8 q 133 85 172 42 q 72 191 93 129 q 56 329 51 252 m 238 322 q 262 155 230 219 q 354 88 294 91 q 459 145 418 85 q 508 311 500 206 q 485 487 517 421 q 391 554 452 552 q 287 495 329 557 q 238 322 246 433 m 485 742 q 422 753 450 742 q 372 775 394 763 q 332 797 350 787 q 302 808 314 808 q 277 793 289 808 q 254 742 265 779 l 158 742 q 228 866 177 827 q 340 905 279 905 q 383 896 359 905 q 431 875 407 886 q 478 854 455 864 q 519 845 501 845 q 575 905 554 845 l 672 905 q 601 782 651 822 q 485 742 551 742 z "},"":{"ha":699,"x_min":51,"x_max":691,"o":"m 56 329 q 93 473 62 410 q 169 576 123 535 q 275 639 216 618 q 399 658 335 659 q 515 629 461 655 q 608 557 568 603 q 670 447 648 511 q 690 305 691 383 q 654 171 683 230 q 578 71 624 112 q 472 9 532 30 q 348 -10 412 -13 q 228 17 284 -8 q 133 85 172 42 q 72 191 93 129 q 56 329 51 252 m 238 322 q 262 155 230 219 q 354 88 294 91 q 459 145 418 85 q 508 311 500 206 q 485 487 517 421 q 391 554 452 552 q 287 495 329 557 q 238 322 246 433 m 192 837 q 234 905 200 880 q 311 931 268 931 q 379 904 353 931 q 399 833 405 878 q 359 765 393 790 q 284 741 326 741 q 212 766 239 741 q 192 837 185 792 m 433 837 q 474 905 441 880 q 551 931 508 931 q 619 904 592 931 q 639 833 645 878 q 599 765 632 790 q 524 741 565 741 q 453 766 479 741 q 433 837 426 792 z "},"":{"ha":725,"x_min":86,"x_max":720,"o":"m 720 485 l 704 370 l 86 370 l 102 485 l 720 485 m 485 193 q 441 125 479 150 q 354 99 404 99 q 274 125 303 99 q 249 195 244 152 q 295 263 257 236 q 382 289 332 289 q 462 262 431 289 q 485 193 493 235 m 559 661 q 513 594 551 619 q 425 568 476 568 q 346 595 377 568 q 321 664 314 623 q 367 732 329 706 q 452 758 405 758 q 532 731 503 758 q 559 663 562 704 l 559 661 z "},"":{"ha":699,"x_min":0,"x_max":742,"o":"m 0 0 l 599 659 l 742 659 l 142 0 l 0 0 m 53 350 q 95 490 62 429 q 176 590 128 551 q 285 646 225 629 q 407 656 345 663 q 514 623 463 648 q 603 555 565 597 q 664 457 642 512 q 686 332 686 401 q 686 307 686 319 q 683 283 685 295 q 643 148 675 206 q 564 53 611 89 q 456 -1 516 16 q 332 -10 396 -18 q 214 26 268 -3 q 121 102 160 56 q 64 212 83 148 q 53 350 45 275 m 235 335 q 232 311 233 322 q 231 286 231 299 q 261 148 231 201 q 345 89 291 96 q 401 99 375 85 q 447 142 426 113 q 481 211 468 171 q 501 299 495 251 q 504 324 503 311 q 504 350 504 337 q 473 491 504 436 q 390 554 441 546 q 290 495 335 554 q 235 335 244 436 z "},"":{"ha":720,"x_min":89,"x_max":741,"o":"m 273 225 q 282 138 267 172 q 343 104 297 104 q 395 119 362 104 q 461 161 428 134 l 517 535 q 515 615 525 587 q 500 648 504 643 l 741 648 q 720 616 738 645 q 693 532 702 587 l 631 115 q 634 32 623 59 q 650 0 645 5 l 444 0 l 449 72 q 361 14 410 35 q 270 -8 311 -8 q 182 5 217 -8 q 127 39 147 18 q 98 89 107 61 q 89 148 89 117 q 91 183 89 166 q 96 217 93 200 l 144 535 q 148 576 148 559 q 140 628 148 611 q 128 648 131 645 l 354 648 l 364 639 q 345 613 361 637 q 321 532 329 589 l 273 225 m 204 923 q 238 928 208 926 q 305 929 268 929 l 401 929 q 407 881 398 910 q 432 824 417 852 q 466 769 447 795 q 500 726 485 742 l 367 726 q 321 759 350 738 q 264 808 292 781 q 218 865 236 835 q 204 924 200 896 l 204 923 z "},"":{"ha":720,"x_min":89,"x_max":741,"o":"m 273 225 q 282 138 267 172 q 343 104 297 104 q 395 119 362 104 q 461 161 428 134 l 517 535 q 515 615 525 587 q 500 648 504 643 l 741 648 q 720 616 738 645 q 693 532 702 587 l 631 115 q 634 32 623 59 q 650 0 645 5 l 444 0 l 449 72 q 361 14 410 35 q 270 -8 311 -8 q 182 5 217 -8 q 127 39 147 18 q 98 89 107 61 q 89 148 89 117 q 91 183 89 166 q 96 217 93 200 l 144 535 q 148 576 148 559 q 140 628 148 611 q 128 648 131 645 l 354 648 l 364 639 q 345 613 361 637 q 321 532 329 589 l 273 225 m 693 921 q 661 863 688 892 q 599 807 634 833 q 527 759 564 781 q 468 726 490 738 l 335 726 q 382 767 356 741 q 433 823 409 793 q 475 881 457 852 q 496 929 493 910 l 594 929 q 662 928 631 929 q 693 923 693 926 l 693 921 z "},"":{"ha":720,"x_min":89,"x_max":741,"o":"m 273 225 q 282 138 267 172 q 343 104 297 104 q 395 119 362 104 q 461 161 428 134 l 517 535 q 515 615 525 587 q 500 648 504 643 l 741 648 q 720 616 738 645 q 693 532 702 587 l 631 115 q 634 32 623 59 q 650 0 645 5 l 444 0 l 449 72 q 361 14 410 35 q 270 -8 311 -8 q 182 5 217 -8 q 127 39 147 18 q 98 89 107 61 q 89 148 89 117 q 91 183 89 166 q 96 217 93 200 l 144 535 q 148 576 148 559 q 140 628 148 611 q 128 648 131 645 l 354 648 l 364 639 q 345 613 361 637 q 321 532 329 589 l 273 225 m 473 961 l 517 899 q 587 807 549 857 q 656 726 626 757 l 522 726 q 473 768 498 747 q 423 814 449 789 q 352 763 386 787 q 295 726 318 739 l 164 726 q 249 803 196 754 q 353 902 302 852 q 383 932 369 916 q 410 961 398 948 l 473 961 z "},"":{"ha":720,"x_min":89,"x_max":741,"o":"m 273 225 q 282 138 267 172 q 343 104 297 104 q 395 119 362 104 q 461 161 428 134 l 517 535 q 515 615 525 587 q 500 648 504 643 l 741 648 q 720 616 738 645 q 693 532 702 587 l 631 115 q 634 32 623 59 q 650 0 645 5 l 444 0 l 449 72 q 361 14 410 35 q 270 -8 311 -8 q 182 5 217 -8 q 127 39 147 18 q 98 89 107 61 q 89 148 89 117 q 91 183 89 166 q 96 217 93 200 l 144 535 q 148 576 148 559 q 140 628 148 611 q 128 648 131 645 l 354 648 l 364 639 q 345 613 361 637 q 321 532 329 589 l 273 225 m 201 837 q 243 905 209 880 q 321 931 278 931 q 389 904 362 931 q 409 833 415 878 q 369 765 402 790 q 294 741 335 741 q 222 766 249 741 q 201 837 195 792 m 442 837 q 484 905 450 880 q 560 931 517 931 q 628 904 602 931 q 648 833 655 878 q 608 765 642 790 q 533 741 575 741 q 462 766 489 741 q 442 837 436 792 z "},"":{"ha":664,"x_min":-5,"x_max":738,"o":"m 16 -129 q 68 -145 38 -147 q 130 -124 97 -144 q 195 -65 163 -104 q 252 30 227 -27 l 139 532 q 107 614 126 583 q 85 648 88 645 l 337 648 q 326 631 335 647 q 316 586 316 616 q 324 535 316 567 l 383 260 l 522 536 l 520 536 q 543 613 543 586 q 541 648 543 640 l 738 648 q 702 616 731 643 q 643 530 674 589 q 544 334 586 417 q 472 190 503 251 q 417 87 441 129 q 377 13 394 45 q 290 -123 330 -70 q 212 -206 249 -176 q 142 -248 176 -236 q 78 -260 109 -260 q 11 -229 27 -260 q 8 -156 -5 -198 l 16 -129 m 650 921 q 618 863 645 892 q 556 807 591 833 q 484 759 520 781 q 425 726 447 738 l 292 726 q 339 767 313 741 q 390 823 366 793 q 432 881 413 852 q 453 929 450 910 l 551 929 q 619 928 587 929 q 650 923 650 926 l 650 921 z "},"":{"ha":710,"x_min":-11,"x_max":691,"o":"m 327 618 q 388 647 358 639 q 458 656 418 656 q 628 589 565 656 q 691 394 691 522 q 691 374 691 386 q 690 350 691 361 q 651 210 680 275 q 576 98 621 145 q 477 24 532 51 q 364 -3 423 -3 q 303 0 338 -3 q 235 14 267 3 q 223 -67 228 -27 q 211 -148 219 -107 q 208 -200 208 -179 q 213 -234 209 -220 q 220 -255 217 -247 q 225 -263 223 -262 l -11 -263 q 9 -232 -8 -260 q 34 -147 26 -204 l 185 845 q 188 892 188 872 q 183 928 187 913 q 176 950 179 942 q 171 959 172 958 l 396 959 l 405 950 q 387 922 402 947 q 361 841 372 897 l 327 618 m 514 343 q 510 443 517 404 q 488 504 503 482 q 450 536 473 527 q 401 544 428 544 q 349 523 374 544 q 302 474 324 501 l 307 477 l 254 126 q 295 113 273 118 q 337 107 318 107 q 454 168 402 107 q 514 343 506 230 z "},"":{"ha":664,"x_min":-5,"x_max":738,"o":"m 16 -129 q 68 -145 38 -147 q 130 -124 97 -144 q 195 -65 163 -104 q 252 30 227 -27 l 139 532 q 107 614 126 583 q 85 648 88 645 l 337 648 q 326 631 335 647 q 316 586 316 616 q 324 535 316 567 l 383 260 l 522 536 l 520 536 q 543 613 543 586 q 541 648 543 640 l 738 648 q 702 616 731 643 q 643 530 674 589 q 544 334 586 417 q 472 190 503 251 q 417 87 441 129 q 377 13 394 45 q 290 -123 330 -70 q 212 -206 249 -176 q 142 -248 176 -236 q 78 -260 109 -260 q 11 -229 27 -260 q 8 -156 -5 -198 l 16 -129 m 172 837 q 215 905 180 880 q 292 931 249 931 q 360 904 334 931 q 380 833 386 878 q 340 765 374 790 q 265 741 307 741 q 193 766 220 741 q 172 837 166 792 m 413 837 q 455 905 421 880 q 532 931 489 931 q 599 904 573 931 q 619 833 626 878 q 580 765 613 790 q 504 741 546 741 q 433 766 460 741 q 413 837 407 792 z "},"":{"ha":338,"x_min":67,"x_max":369,"o":"m 284 22 q 171 -8 222 -8 q 87 30 107 -8 q 73 113 67 67 l 137 527 q 137 611 147 586 q 125 640 128 637 l 369 659 q 362 651 369 658 q 346 628 354 643 q 330 591 338 613 q 318 540 322 570 l 252 110 q 249 69 247 85 q 255 47 251 54 q 265 38 259 40 q 276 35 271 35 l 284 22 z "},"":{"ha":605,"x_min":3,"x_max":591,"o":"m 551 0 l 16 0 l 6 11 q 34 47 10 13 q 70 150 59 81 l 166 785 q 168 848 171 821 q 160 892 166 875 q 149 920 155 910 q 142 932 144 931 l 415 932 q 403 920 412 929 q 383 891 394 910 q 361 845 372 872 q 345 782 350 817 l 247 147 q 244 133 246 139 q 241 117 243 126 l 409 117 q 497 137 468 117 q 552 190 527 158 l 591 187 l 551 0 m 449 640 l 431 514 l 3 318 l 24 444 l 449 640 z "},"":{"ha":413,"x_min":18,"x_max":461,"o":"m 342 583 q 405 612 370 597 q 461 639 439 627 l 442 512 l 308 449 l 322 453 l 271 115 q 271 32 263 61 q 283 0 279 3 l 59 0 l 53 11 q 70 41 56 14 q 94 118 85 67 q 113 243 104 185 q 133 370 123 302 l 18 316 l 37 442 l 166 501 l 152 496 l 204 845 q 206 894 208 873 q 201 928 204 915 q 194 950 198 942 q 188 959 190 958 l 431 959 q 409 929 428 956 q 382 841 390 902 l 342 583 z "},"":{"ha":1133,"x_min":72,"x_max":1188,"o":"m 1044 0 l 538 0 q 354 28 439 0 q 206 109 268 56 q 108 239 144 163 q 72 415 72 316 q 72 437 72 426 q 73 461 72 449 q 129 664 83 576 q 248 812 176 752 q 414 902 321 872 q 611 932 508 932 l 1188 932 l 1169 760 l 1164 758 q 1127 801 1153 785 q 1046 816 1102 816 l 845 816 q 822 676 833 744 q 800 536 811 608 l 969 536 q 1011 542 990 536 q 1050 556 1033 548 q 1081 571 1068 564 q 1097 581 1094 578 l 1073 374 q 1056 387 1068 378 q 1027 405 1044 396 q 991 419 1011 413 q 953 425 972 425 l 784 425 l 738 117 l 937 117 q 1027 133 998 117 q 1079 182 1055 150 l 1082 179 l 1044 0 m 583 289 l 663 821 l 602 821 q 480 797 538 821 q 375 727 421 773 q 299 616 329 682 q 263 466 270 551 q 277 320 257 385 q 336 210 297 255 q 429 140 375 164 q 544 117 482 117 l 556 117 l 583 289 z "},"":{"ha":1087,"x_min":48,"x_max":1113,"o":"m 875 656 q 989 639 942 656 q 1064 595 1036 623 q 1102 534 1092 568 q 1108 466 1113 500 q 1085 404 1103 434 q 1031 350 1066 374 q 943 311 996 326 q 816 295 891 295 l 686 295 q 694 218 682 255 q 729 152 706 180 q 785 106 752 123 q 857 89 819 89 q 903 95 878 89 q 951 111 928 101 q 994 135 974 121 q 1027 164 1014 148 l 1044 161 l 1028 48 q 943 9 1003 27 q 809 -10 883 -10 q 682 12 742 -10 q 581 73 623 34 q 476 7 535 27 q 346 -10 417 -13 q 226 17 281 -8 q 130 85 171 42 q 69 191 89 129 q 53 329 48 252 q 89 473 59 410 q 166 576 120 535 q 272 639 212 618 q 396 658 332 659 q 523 627 465 655 q 621 552 581 599 q 738 630 672 603 q 875 656 803 656 m 235 322 q 259 155 227 219 q 351 88 291 91 q 456 145 415 85 q 504 311 496 206 q 481 487 514 421 q 388 554 449 552 q 284 495 326 557 q 235 322 243 433 m 872 552 q 769 507 817 552 q 704 394 722 461 l 845 394 q 921 417 892 394 q 955 466 950 439 q 942 525 959 498 q 872 552 924 552 z "},"":{"ha":648,"x_min":21,"x_max":694,"o":"m 436 208 q 435 267 442 241 q 411 317 428 294 q 371 359 394 340 q 322 398 348 378 q 242 461 283 426 q 171 536 201 495 q 125 623 140 576 q 117 726 109 670 q 152 820 123 779 q 224 888 180 860 q 324 931 268 916 q 444 945 380 945 q 590 927 533 945 q 680 888 647 908 l 658 739 l 656 739 q 629 776 650 758 q 581 806 608 793 q 522 827 554 819 q 461 835 490 835 q 354 808 391 835 q 308 739 316 781 q 315 686 305 712 q 344 638 326 661 q 386 592 362 615 q 437 549 410 570 q 520 477 482 512 q 585 404 559 442 q 623 321 611 366 q 627 222 635 276 q 587 121 618 164 q 508 45 556 77 q 398 -2 460 14 q 268 -18 337 -18 q 117 1 177 -18 q 21 42 56 19 l 32 206 l 35 208 q 69 164 43 185 q 126 128 94 144 q 193 102 158 112 q 257 93 228 93 q 382 127 337 93 q 436 208 428 161 m 378 1011 l 348 1054 q 308 1109 329 1081 q 268 1162 287 1137 q 232 1209 249 1188 q 204 1245 216 1231 l 337 1245 q 385 1203 359 1224 q 436 1156 410 1181 q 507 1208 473 1183 q 564 1245 541 1232 l 694 1245 q 653 1210 677 1231 q 604 1165 629 1189 q 553 1117 580 1141 q 504 1071 527 1092 l 506 1071 q 471 1035 489 1052 q 442 1011 453 1019 l 378 1011 z "},"":{"ha":559,"x_min":42,"x_max":611,"o":"m 340 160 q 321 214 345 192 q 260 259 297 236 q 200 303 231 279 q 145 353 169 326 q 109 414 121 380 q 102 490 96 449 q 135 570 110 538 q 198 621 160 602 q 284 649 236 640 q 386 658 332 658 q 488 646 442 658 q 562 618 533 634 l 535 468 q 504 499 522 484 q 465 526 485 514 q 422 545 444 538 q 382 552 401 552 q 314 541 342 552 q 281 493 287 530 q 301 439 276 461 q 361 394 326 417 q 420 352 390 375 q 474 300 450 329 q 511 237 498 271 q 517 161 524 203 q 483 85 509 118 q 417 32 457 53 q 330 1 378 11 q 228 -10 281 -10 q 121 5 172 -10 q 42 35 69 19 l 46 198 q 89 160 65 179 q 139 128 113 142 q 191 105 164 113 q 241 96 217 96 q 306 109 278 96 q 340 160 334 123 m 295 758 l 265 801 q 225 856 246 829 q 185 910 204 884 q 149 957 166 936 q 121 993 133 979 l 254 993 q 302 951 276 972 q 353 904 327 929 q 424 955 390 931 q 481 993 458 980 l 611 993 q 570 958 594 979 q 521 913 546 937 q 470 864 496 889 q 421 819 444 840 l 423 819 q 388 783 405 800 q 359 758 370 766 l 295 758 z "},"":{"ha":832,"x_min":104,"x_max":940,"o":"m 528 366 l 532 367 l 498 147 q 493 101 493 120 q 507 29 493 54 q 524 0 520 3 l 265 0 l 255 11 q 265 20 257 11 q 284 46 273 29 q 306 89 295 64 q 321 150 316 115 l 353 370 l 354 367 l 180 813 l 180 811 q 137 888 160 857 q 104 932 115 920 l 412 932 q 397 909 409 929 q 385 859 385 889 q 386 836 385 846 q 391 816 388 825 l 391 817 l 501 548 l 678 817 q 698 857 693 838 q 704 892 704 876 q 701 917 704 907 q 696 932 698 928 l 940 932 q 899 894 934 926 q 827 811 864 862 l 528 366 m 335 1105 q 378 1173 343 1148 q 455 1199 412 1199 q 523 1173 496 1199 q 543 1102 549 1146 q 503 1034 536 1058 q 428 1009 469 1009 q 356 1034 383 1009 q 335 1105 329 1060 m 576 1105 q 618 1173 584 1148 q 694 1199 651 1199 q 762 1173 736 1199 q 782 1102 789 1146 q 742 1034 776 1058 q 667 1009 709 1009 q 596 1034 623 1009 q 576 1105 570 1060 z "},"":{"ha":754,"x_min":-8,"x_max":835,"o":"m 8 94 q 77 188 29 126 q 189 330 125 251 q 330 504 254 410 q 484 693 405 597 l 583 816 l 251 816 q 162 799 192 816 q 107 750 133 782 l 105 755 l 137 932 l 835 932 l 822 852 q 769 781 808 830 q 677 664 731 731 q 558 518 623 597 q 428 361 493 439 q 330 242 382 302 q 227 117 278 182 l 573 117 q 661 133 632 117 q 715 182 690 150 l 720 179 l 688 0 l -8 0 l 8 94 m 431 1011 l 401 1054 q 361 1109 382 1081 q 321 1162 340 1137 q 285 1209 302 1188 q 257 1245 268 1231 l 390 1245 q 437 1203 412 1224 q 489 1156 463 1181 q 560 1208 525 1183 q 616 1245 594 1232 l 747 1245 q 706 1210 730 1231 q 657 1165 682 1189 q 606 1117 632 1141 q 557 1071 580 1092 l 559 1071 q 524 1035 541 1052 q 495 1011 506 1019 l 431 1011 z "},"":{"ha":543,"x_min":2,"x_max":603,"o":"m 14 78 q 62 140 30 99 q 133 232 94 182 q 212 337 171 283 q 289 437 254 391 q 330 492 310 465 q 372 548 350 520 l 255 548 q 207 545 228 548 q 165 537 185 543 q 125 523 145 532 q 80 500 105 514 l 105 648 l 602 648 l 594 586 q 551 528 581 568 q 483 439 520 489 q 403 335 445 390 q 324 233 361 281 q 259 149 287 185 q 220 101 230 113 l 350 101 q 453 107 410 101 q 525 137 496 113 l 501 0 l 2 0 l 14 78 m 287 758 l 257 801 q 217 856 238 829 q 177 910 196 884 q 141 957 158 936 q 113 993 125 979 l 246 993 q 294 951 268 972 q 345 904 319 929 q 416 955 382 931 q 473 993 450 980 l 603 993 q 562 958 586 979 q 513 913 538 937 q 462 864 489 889 q 413 819 436 840 l 415 819 q 380 783 398 800 q 351 758 362 766 l 287 758 z "},"":{"ha":707,"x_min":-14,"x_max":793,"o":"m 322 549 l 225 549 l 241 648 l 353 648 l 386 760 q 496 914 418 859 q 664 969 573 969 q 735 963 714 969 q 769 948 757 956 l 793 939 l 773 824 q 719 853 746 841 q 670 864 693 865 q 608 838 639 862 q 560 754 578 814 l 527 648 l 656 648 l 645 549 l 496 549 l 390 193 q 347 105 375 144 q 283 40 319 67 q 201 -2 246 13 q 112 -16 156 -16 q 45 -10 65 -16 q 11 3 24 -5 l -14 16 l 6 131 q 50 99 19 109 q 105 89 81 89 q 169 114 140 89 q 219 200 198 139 l 322 549 z "},"":{"ha":535,"x_min":69,"x_max":560,"o":"m 377 961 l 421 899 q 492 807 453 857 q 560 726 530 757 l 426 726 q 378 768 402 747 q 327 814 353 789 q 256 763 291 787 q 200 726 222 739 l 69 726 q 153 803 101 754 q 257 902 206 852 q 287 932 273 916 q 314 961 302 948 l 377 961 z "},"":{"ha":535,"x_min":107,"x_max":597,"o":"m 281 758 l 251 801 q 211 856 231 829 q 171 910 190 884 q 135 957 152 936 q 107 993 118 979 l 239 993 q 287 951 262 972 q 338 904 313 929 q 409 955 375 931 q 466 993 444 980 l 597 993 q 556 958 580 979 q 507 913 532 937 q 456 864 482 889 q 407 819 429 840 l 409 819 q 374 783 391 800 q 345 758 356 766 l 281 758 z "},"":{"ha":367,"x_min":78,"x_max":439,"o":"m 231 742 q 172 755 200 742 q 122 791 144 768 q 89 847 101 814 q 81 921 78 880 l 198 921 q 212 863 198 881 q 249 845 227 845 q 291 863 270 845 q 326 921 311 881 l 439 921 q 408 847 429 880 q 358 791 386 814 q 299 755 330 768 q 236 742 267 742 l 231 742 z "},"":{"ha":305,"x_min":109,"x_max":327,"o":"m 115 837 q 157 905 123 880 q 233 931 192 931 q 302 904 276 931 q 322 833 327 878 q 282 765 316 790 q 206 741 247 741 q 136 766 163 741 q 115 837 109 792 z "},"":{"ha":479,"x_min":158,"x_max":445,"o":"m 164 833 q 183 880 169 857 q 218 919 196 902 q 265 945 239 936 q 319 955 291 955 q 410 918 375 955 q 437 830 445 881 q 420 782 434 805 q 385 744 405 760 q 338 718 364 728 q 283 709 311 709 q 192 745 227 709 q 164 832 158 781 l 164 833 m 265 832 q 271 793 262 809 q 292 776 279 776 q 320 793 307 776 q 337 833 334 811 q 332 871 340 856 q 310 886 324 886 q 283 869 295 886 q 265 830 270 852 l 265 832 z "},"":{"ha":329,"x_min":5,"x_max":302,"o":"m 263 13 q 212 -40 239 -8 q 171 -118 184 -72 q 176 -192 158 -169 q 220 -214 193 -214 q 241 -212 227 -214 q 268 -206 255 -209 q 302 -198 284 -203 l 246 -275 q 214 -287 231 -281 q 180 -296 200 -292 q 142 -300 161 -300 q 93 -295 118 -302 q 48 -271 69 -287 q 16 -231 27 -255 q 10 -169 5 -206 q 28 -117 13 -144 q 66 -64 43 -89 q 116 -15 89 -38 q 169 24 142 8 q 209 18 192 21 l 247 11 l 263 13 z "},"":{"ha":516,"x_min":64,"x_max":578,"o":"m 391 742 q 328 753 356 742 q 278 775 300 763 q 238 797 255 787 q 208 808 220 808 q 183 793 195 808 q 160 742 171 779 l 64 742 q 134 866 83 827 q 246 905 185 905 q 289 896 265 905 q 337 875 313 886 q 384 854 361 864 q 425 845 407 845 q 481 905 460 845 l 578 905 q 507 782 557 822 q 391 742 457 742 z "},"":{"ha":592,"x_min":174,"x_max":757,"o":"m 532 921 q 495 863 527 892 q 421 807 463 833 q 338 759 380 781 q 275 726 297 738 l 174 726 q 221 767 195 741 q 271 823 247 793 q 314 881 295 852 q 335 929 332 910 l 433 929 q 500 928 469 929 q 532 923 532 926 l 532 921 m 757 921 q 722 863 754 892 q 650 807 691 833 q 567 759 608 781 q 501 726 525 738 l 401 726 q 448 767 421 741 q 498 823 474 793 q 540 881 522 852 q 562 929 559 910 l 659 929 q 726 928 696 929 q 757 923 757 926 l 757 921 z "},"":{"ha":725,"x_min":13,"x_max":769,"o":"m 769 482 l 750 366 l 13 366 l 32 482 l 769 482 z "},"":{"ha":1453,"x_min":16,"x_max":1491,"o":"m 1491 482 l 1472 366 l 16 366 l 35 482 l 1491 482 z "},"":{"ha":335,"x_min":140,"x_max":410,"o":"m 148 747 q 218 880 158 830 q 391 958 278 931 l 410 948 q 354 895 370 920 q 334 848 337 870 q 339 806 332 827 q 356 765 346 785 q 374 725 366 746 q 378 682 382 704 q 333 597 372 629 q 244 575 294 565 q 168 633 196 584 q 148 747 140 682 z "},"":{"ha":335,"x_min":158,"x_max":428,"o":"m 420 832 q 350 698 410 749 q 177 621 291 648 l 158 631 q 215 684 198 659 q 234 730 231 709 q 229 773 236 752 q 212 813 222 793 q 195 854 203 833 q 190 897 187 875 q 235 982 196 950 q 324 1004 275 1014 q 400 946 372 995 q 420 832 428 897 z "},"":{"ha":340,"x_min":38,"x_max":308,"o":"m 300 42 q 231 -92 291 -42 q 57 -169 171 -142 l 38 -160 q 95 -106 78 -131 q 114 -60 112 -81 q 109 -18 117 -38 q 93 23 102 3 q 75 64 83 43 q 70 107 67 85 q 116 192 77 160 q 204 214 155 223 q 280 156 252 204 q 300 42 308 107 z "},"":{"ha":554,"x_min":109,"x_max":637,"o":"m 117 747 q 186 880 126 830 q 359 958 246 931 l 378 948 q 322 895 338 920 q 303 848 305 870 q 307 806 300 827 q 324 765 314 785 q 342 725 334 746 q 346 682 350 704 q 301 597 340 629 q 212 575 262 565 q 136 633 164 584 q 117 747 109 682 m 375 747 q 445 880 385 830 q 618 958 504 931 l 637 948 q 580 895 597 920 q 561 848 564 870 q 566 806 559 827 q 583 765 573 785 q 600 725 592 746 q 605 682 608 704 q 560 597 599 629 q 471 575 520 565 q 395 633 423 584 q 375 747 367 682 z "},"":{"ha":564,"x_min":126,"x_max":656,"o":"m 388 832 q 318 698 378 749 q 145 621 259 648 l 126 631 q 183 684 166 659 q 202 730 200 709 q 197 773 204 752 q 180 813 190 793 q 163 854 171 833 q 158 897 155 875 q 204 982 164 950 q 292 1004 243 1014 q 368 946 340 995 q 388 832 396 897 m 648 832 q 579 698 639 749 q 405 621 519 648 l 386 631 q 443 684 426 659 q 462 730 460 709 q 457 773 465 752 q 441 813 450 793 q 423 854 431 833 q 418 897 415 875 q 464 982 425 950 q 552 1004 503 1014 q 628 946 600 995 q 648 832 656 897 z "},"":{"ha":564,"x_min":6,"x_max":535,"o":"m 268 42 q 199 -92 259 -42 q 26 -169 139 -142 l 6 -160 q 63 -106 46 -131 q 82 -60 80 -81 q 77 -18 85 -38 q 61 23 70 3 q 43 64 51 43 q 38 107 35 85 q 84 192 45 160 q 172 214 123 223 q 248 156 220 204 q 268 42 276 107 m 527 42 q 457 -92 517 -42 q 284 -169 398 -142 l 265 -160 q 322 -106 305 -131 q 341 -60 338 -81 q 336 -18 343 -38 q 319 23 329 3 q 302 64 310 43 q 297 107 294 85 q 342 192 303 160 q 431 214 382 223 q 507 156 479 204 q 527 42 535 107 z "},"":{"ha":725,"x_min":179,"x_max":696,"o":"m 559 961 l 517 702 l 696 717 l 677 599 l 503 615 l 399 -81 l 251 -81 l 358 615 l 179 599 l 198 717 l 369 702 l 410 961 l 559 961 z "},"":{"ha":725,"x_min":113,"x_max":696,"o":"m 559 961 l 517 702 l 696 717 l 677 599 l 504 615 q 477 439 492 524 q 450 263 463 354 l 627 279 l 610 161 l 439 177 l 399 -81 l 251 -81 l 291 177 l 113 161 l 131 279 l 303 263 q 330 439 316 354 q 358 615 345 524 l 179 599 l 198 717 l 369 702 l 410 961 l 559 961 z "},"":{"ha":514,"x_min":75,"x_max":493,"o":"m 80 396 q 108 475 86 439 q 160 536 129 511 q 231 576 192 562 q 313 589 271 589 q 390 575 354 589 q 449 535 425 560 q 483 473 473 509 q 489 394 493 437 q 461 317 482 351 q 409 259 441 283 q 338 221 377 235 q 257 208 299 208 q 180 221 216 208 q 121 259 145 235 q 86 318 97 284 q 80 396 75 353 z "},"":{"ha":961,"x_min":53,"x_max":916,"o":"m 59 85 q 104 154 65 128 q 190 180 142 180 q 271 152 239 180 q 295 81 302 123 q 251 16 289 42 q 166 -10 212 -10 q 84 17 115 -10 q 59 85 53 43 m 367 85 q 412 154 374 128 q 498 180 450 180 q 578 152 548 180 q 602 81 608 123 q 558 16 595 42 q 473 -10 520 -10 q 392 17 423 -10 q 367 85 361 43 m 674 85 q 718 154 682 128 q 806 180 755 180 q 886 152 856 180 q 910 81 916 123 q 865 16 902 42 q 781 -10 829 -10 q 699 16 730 -10 q 674 83 669 42 l 674 85 z "},"":{"ha":1153,"x_min":27,"x_max":1119,"o":"m 1114 225 q 1084 126 1106 169 q 1030 53 1062 83 q 961 6 999 22 q 884 -10 923 -10 q 771 34 811 -10 q 710 2 744 13 q 645 -10 677 -10 q 528 38 573 -10 q 482 171 482 85 q 487 228 482 200 q 519 330 496 284 q 573 407 541 375 q 642 457 605 439 q 717 474 678 474 q 778 462 749 474 q 830 429 808 450 q 956 474 884 474 q 1074 425 1028 474 q 1119 284 1119 375 q 1114 225 1119 254 m 89 698 q 121 802 99 757 q 175 879 144 848 q 244 926 206 910 q 321 942 283 942 q 437 894 391 942 q 484 757 484 846 q 479 694 484 725 q 449 596 471 640 q 395 522 426 552 q 326 476 364 492 q 249 460 289 460 q 133 508 180 460 q 86 642 86 556 q 86 670 86 656 q 89 698 86 683 m 172 0 l 27 0 q 42 17 32 6 q 76 57 51 27 q 148 147 101 88 q 279 307 196 206 q 485 561 362 409 q 785 932 608 714 l 934 932 l 172 0 m 634 225 q 629 164 629 192 q 635 97 629 121 q 655 73 642 73 q 692 113 674 73 q 723 217 710 152 l 728 238 l 728 236 q 730 264 730 251 q 731 291 731 278 q 725 363 731 337 q 706 390 718 390 q 664 346 683 390 q 634 225 645 302 m 236 694 q 231 635 231 661 q 239 568 231 592 q 260 543 246 543 q 299 587 279 543 q 330 698 318 632 q 335 732 334 715 q 337 763 337 749 q 330 833 337 808 q 310 859 322 859 q 268 814 287 859 q 236 694 249 769 m 967 227 q 972 294 972 262 q 965 364 972 338 q 945 390 958 390 q 908 346 928 390 q 876 236 889 303 q 876 230 876 233 q 875 225 875 227 q 870 164 870 192 q 876 97 870 121 q 896 73 883 73 q 936 116 918 73 q 967 228 955 158 l 967 227 z "},"":{"ha":469,"x_min":69,"x_max":511,"o":"m 511 723 l 493 592 l 254 423 l 442 254 l 420 121 l 69 391 l 80 457 l 511 723 z "},"":{"ha":469,"x_min":29,"x_max":473,"o":"m 473 457 l 461 391 l 29 123 l 49 254 l 289 423 l 99 592 l 120 723 l 473 457 z "},"":{"ha":275,"x_min":-270,"x_max":632,"o":"m -128 0 l -270 0 q -252 20 -263 6 q -212 69 -241 34 q -129 173 -184 105 q 22 358 -73 241 q 216 599 102 457 q 484 932 329 742 l 632 932 l -128 0 z "},"":{"ha":849,"x_min":42,"x_max":876,"o":"m 182 634 q 252 767 208 709 q 354 864 297 825 q 476 924 410 904 q 610 945 541 945 q 772 927 704 945 q 876 888 840 908 l 843 723 q 751 805 808 774 q 618 835 694 835 q 481 782 540 835 q 386 634 421 730 l 755 634 l 707 519 l 356 519 q 353 489 353 503 q 351 461 353 476 q 350 437 350 449 q 350 415 350 426 l 678 415 l 627 300 l 362 300 q 439 152 385 206 q 570 97 493 97 q 687 124 631 97 q 811 200 744 150 l 789 57 q 677 8 733 26 q 540 -10 621 -10 q 403 11 466 -10 q 290 72 340 32 q 206 169 239 112 q 158 300 172 227 l 42 300 l 59 415 l 145 415 q 145 438 145 426 q 147 461 145 450 q 149 490 148 474 q 153 519 150 506 l 75 519 l 93 634 l 182 634 z "},"":{"ha":608,"x_min":81,"x_max":667,"o":"m 93 940 l 316 940 l 308 881 q 294 898 303 892 q 262 904 284 904 l 222 904 l 192 701 q 192 664 187 675 q 198 651 198 653 l 123 651 q 133 663 125 651 q 147 701 142 675 l 177 904 l 137 904 q 103 898 115 904 q 81 881 91 892 l 93 940 m 391 940 q 412 892 390 939 q 476 736 434 846 q 579 892 548 845 q 608 940 610 939 l 667 940 q 657 927 666 939 q 643 891 648 915 l 616 701 q 617 663 611 675 q 624 651 623 651 l 549 651 q 559 664 551 653 q 572 701 567 675 l 592 840 q 512 718 546 766 q 471 651 479 669 l 450 651 q 437 685 449 659 q 413 741 426 710 q 388 799 399 771 q 374 840 377 827 l 353 701 q 354 664 350 675 q 361 651 359 653 l 294 651 q 304 663 295 651 q 318 701 313 675 l 345 891 q 343 927 348 915 q 337 940 338 939 l 391 940 z "},"":{"ha":725,"x_min":85,"x_max":720,"o":"m 720 482 l 702 366 l 85 366 l 102 482 l 720 482 z "},"":{"ha":704,"x_min":-97,"x_max":733,"o":"m 651 22 q 538 -8 589 -8 q 486 2 506 -8 q 455 30 466 13 q 441 69 444 46 q 442 113 439 91 q 457 217 449 161 q 476 330 466 273 q 493 444 485 388 q 509 549 501 500 l 334 549 l 243 -56 q 212 -140 235 -101 q 158 -208 188 -179 q 93 -255 128 -238 q 26 -273 59 -273 q -56 -252 -27 -273 q -97 -200 -85 -231 q -41 -187 -69 -200 q 10 -152 -13 -174 q 47 -101 32 -129 q 69 -38 62 -72 l 155 549 l 62 549 l 75 648 l 171 648 l 182 714 q 213 808 188 761 q 281 890 238 854 q 384 947 324 926 q 524 969 444 969 q 631 959 586 969 q 712 939 677 950 l 685 766 l 678 766 q 617 836 666 808 q 504 864 568 864 q 449 851 474 864 q 405 817 425 838 q 374 767 386 795 q 358 709 362 739 l 350 648 l 733 648 q 711 616 730 645 q 683 532 693 587 l 619 110 q 616 69 615 85 q 622 47 618 54 q 632 38 626 40 q 643 35 639 35 l 651 22 z "},"":{"ha":698,"x_min":-99,"x_max":792,"o":"m 663 22 q 549 -8 600 -8 q 496 2 517 -8 q 465 30 476 13 q 452 68 455 46 q 453 113 449 89 l 562 833 l 562 838 q 528 856 549 849 q 469 864 506 864 q 405 839 436 864 q 364 754 375 814 q 356 702 361 726 q 348 648 351 677 l 463 648 l 445 549 l 334 549 q 287 247 311 398 q 241 -56 263 96 q 211 -140 233 -101 q 158 -208 188 -179 q 93 -255 128 -238 q 26 -273 57 -273 q -57 -252 -29 -273 q -99 -200 -86 -231 q 9 -153 -38 -200 q 67 -38 56 -107 l 155 549 l 62 549 l 75 648 l 171 648 q 180 704 174 677 q 188 758 185 731 q 220 847 196 808 q 276 913 243 886 q 351 955 310 940 q 439 969 393 969 q 524 953 492 969 q 578 907 556 937 l 587 959 l 792 959 q 767 929 785 956 q 741 841 749 902 l 631 110 q 633 49 623 62 q 655 35 643 37 l 663 22 z "}}}
